<svg xmlns="http://www.w3.org/2000/svg" viewBox="0 0 9.41 7.5"><title>4x4</title><polygon points="6.74 3.9 7.31 3.9 7.31 2.97 7.3 2.97 6.74 3.9" fill="#9ab9c9" stroke="none"/><polygon points="1.83 3.9 2.4 3.9 2.4 2.97 2.39 2.97 1.83 3.9" fill="#9ab9c9"/><path d="M4.7,0.14C2.18,0.14.14,1.76,0.14,3.75s2,3.61,4.56,3.61S9.27,5.74,9.27,3.75,7.22,0.14,4.7.14ZM3.27,4.38H3v0.5H2.4V4.38H1.22V4L2.16,2.46H3V3.9H3.27V4.38Zm2.35-.16-0.37.37L4.7,4l-0.55.55L3.79,4.22l0.55-.55L3.79,3.12l0.37-.37L4.7,3.3l0.55-.55L5.62,3.12l-0.55.55ZM8.19,4.38H7.89v0.5H7.31V4.38H6.14V4L7.07,2.46H7.89V3.9H8.19V4.38Z" fill="none" stroke="#9ab9c9" stroke-miterlimit="10" stroke-width="0.28"/></svg>
