<svg xmlns="http://www.w3.org/2000/svg" viewBox="0 0 40.14 40.08"><title>ask</title><circle cx="19.86" cy="28.02" r="1.91"/><path d="M22.51,9.37c-2.68-.38-4.67.1-5.94,1.41a6,6,0,0,0-1.3,4.86,0.91,0.91,0,0,0,1.79-.33A4.26,4.26,0,0,1,17.88,12c0.84-.87,2.32-1.17,4.38-0.87a3.26,3.26,0,0,1,2.59,3.4,3.81,3.81,0,0,1-3,4c-2.47.46-2.89,1.91-2.8,4.6a0.91,0.91,0,0,0,.91.88h0a0.91,0.91,0,0,0,.88-0.93c-0.08-2.5.27-2.56,1.32-2.76a5.57,5.57,0,0,0,4.52-5.84A5,5,0,0,0,22.51,9.37Z"/><path d="M39.9,38.83a0.91,0.91,0,0,0,.19-0.91c-1.14-3.33-2.36-7-2.6-8.05A20,20,0,1,0,30.78,37L39,39.09A0.91,0.91,0,0,0,39.9,38.83ZM30.85,35.1v0.06a1,1,0,0,0-.69.07v0a18.28,18.28,0,1,1,5.64-6c-0.24.41-.35,0.6,2.06,7.69Z"/></svg>