<svg xmlns="http://www.w3.org/2000/svg" viewBox="0 0 60.61 57.3"><title>ask2</title><path d="M30.3,1.25c-16,0-29.05,11.12-29.05,24.84a23,23,0,0,0,7.85,17L5.94,55.26l14.75-5.73a33.47,33.47,0,0,0,9.61,1.4c16,0,29.05-11.12,29.05-24.84S46.35,1.25,30.3,1.25Z" fill="none" stroke="#9ab9c9" stroke-miterlimit="10" stroke-width="2.5"/><path d="M21.3,15a22.38,22.38,0,0,1,2.38-.84C31,12,37.94,13.89,39.24,18.35c1.21,4.13-2.87,9-9.28,11.42v4.07" fill="none" stroke="#005693" stroke-miterlimit="10" stroke-width="2.5"/><circle cx="29.96" cy="38.67" r="1.83" fill="#005693"/></svg>