<svg xmlns="http://www.w3.org/2000/svg" viewBox="0 0 56.45 88.94"><title>award</title><path d="M32.67,56.27a5.53,5.53,0,0,1-2.82-1.13,4.49,4.49,0,0,0-1.69-.79,4.49,4.49,0,0,0-1.69.79c-1,.56-2.14,1.24-3.27,1A4.67,4.67,0,0,1,20.51,54a4.21,4.21,0,0,0-1.24-1.24,5.26,5.26,0,0,0-1.8.11,5.6,5.6,0,0,1-3.38-.11,4.51,4.51,0,0,1-1.8-2.93,4.73,4.73,0,0,0-.79-1.69,6,6,0,0,0-1.8-.45,4.26,4.26,0,0,1-3.15-1.35A4.44,4.44,0,0,1,5.86,43a8,8,0,0,0-.11-1.8,5.46,5.46,0,0,0-1.46-1,4.83,4.83,0,0,1-2.59-2.37,4.44,4.44,0,0,1,.45-3.38,4.2,4.2,0,0,0,.45-1.8,6.92,6.92,0,0,0-1-1.46A4.73,4.73,0,0,1,0,28.1a5,5,0,0,1,1.58-3,4.92,4.92,0,0,0,1-1.46,4.2,4.2,0,0,0-.45-1.8,4.44,4.44,0,0,1-.45-3.38A5.31,5.31,0,0,1,4.28,16a5.46,5.46,0,0,0,1.46-1,3.05,3.05,0,0,0,.11-1.8c0-1.13-.11-2.48.68-3.38A5.35,5.35,0,0,1,9.69,8.49,6,6,0,0,0,11.49,8a3.94,3.94,0,0,0,.79-1.69,4.69,4.69,0,0,1,1.8-2.93c0.9-.56,2.25-0.34,3.49-0.11a5.36,5.36,0,0,0,1.8.11,6.34,6.34,0,0,0,1.24-1.24A5,5,0,0,1,23.32,0c1.13-.23,2.25.45,3.27,1a4.49,4.49,0,0,0,1.69.79A4.49,4.49,0,0,0,30,1.06c1-.56,2-1.24,3.27-1a4.67,4.67,0,0,1,2.7,2.14,4.21,4.21,0,0,0,1.24,1.24A5.26,5.26,0,0,0,39,3.31a5.6,5.6,0,0,1,3.38.11,4.51,4.51,0,0,1,1.8,2.93A4.73,4.73,0,0,0,45,8a6,6,0,0,0,1.8.45,4.26,4.26,0,0,1,3.15,1.35,4.44,4.44,0,0,1,.68,3.38A8,8,0,0,0,50.7,15a5.46,5.46,0,0,0,1.46,1,4.83,4.83,0,0,1,2.59,2.37,4.44,4.44,0,0,1-.45,3.38,4.2,4.2,0,0,0-.45,1.8,6.92,6.92,0,0,0,1,1.46,4.73,4.73,0,0,1,1.58,3,5,5,0,0,1-1.58,3,4.92,4.92,0,0,0-1,1.46,4.2,4.2,0,0,0,.45,1.8,4.44,4.44,0,0,1,.45,3.38,5.31,5.31,0,0,1-2.59,2.37,5.46,5.46,0,0,0-1.46,1,3.05,3.05,0,0,0-.11,1.8c0,1.13.11,2.48-.68,3.38a5.35,5.35,0,0,1-3.15,1.35,6,6,0,0,0-1.8.45,3.94,3.94,0,0,0-.79,1.69,4.69,4.69,0,0,1-1.8,2.93c-0.9.56-2.25,0.34-3.49,0.11a5.36,5.36,0,0,0-1.8-.11A6.34,6.34,0,0,0,35.83,54a5,5,0,0,1-2.7,2.14A0.68,0.68,0,0,1,32.67,56.27ZM28.17,52.1A5.17,5.17,0,0,1,31,53.22a5.07,5.07,0,0,0,1.58.79h0.11A5,5,0,0,0,34,52.66a7.69,7.69,0,0,1,2.25-2,5.63,5.63,0,0,1,3,.11,6,6,0,0,0,1.92.11A3.94,3.94,0,0,0,42,49.17a5.76,5.76,0,0,1,1.46-2.7,6.06,6.06,0,0,1,2.82-1,3.4,3.4,0,0,0,1.8-.56A4.42,4.42,0,0,0,48.33,43a6.9,6.9,0,0,1,.45-3A6.59,6.59,0,0,1,51.15,38a4.74,4.74,0,0,0,1.58-1.13,4.6,4.6,0,0,0-.45-1.8,5.47,5.47,0,0,1-.56-3,6.2,6.2,0,0,1,1.58-2.59,4.47,4.47,0,0,0,1-1.58,3.68,3.68,0,0,0-1-1.58,6.2,6.2,0,0,1-1.58-2.59,5.86,5.86,0,0,1,.56-3,4.6,4.6,0,0,0,.45-1.8,3.77,3.77,0,0,0-1.58-1.13,5.59,5.59,0,0,1-2.37-1.92,5.6,5.6,0,0,1-.45-3,4.69,4.69,0,0,0-.23-1.92,3.4,3.4,0,0,0-1.8-.56,5,5,0,0,1-2.82-1A5.76,5.76,0,0,1,42,6.58a3.94,3.94,0,0,0-.79-1.69A6.18,6.18,0,0,0,39.32,5a7,7,0,0,1-3,.11,4.87,4.87,0,0,1-2.25-2,5,5,0,0,0-1.35-1.35A4.49,4.49,0,0,0,31,2.52a5.53,5.53,0,0,1-2.82,1.13,5.17,5.17,0,0,1-2.82-1.13,5.07,5.07,0,0,0-1.58-.79,4,4,0,0,0-1.46,1.35,7.69,7.69,0,0,1-2.25,2A5.63,5.63,0,0,1,17,5a6,6,0,0,0-1.92-.11,3.94,3.94,0,0,0-.79,1.69,5.76,5.76,0,0,1-1.46,2.7,6.06,6.06,0,0,1-2.82,1,3.4,3.4,0,0,0-1.8.56A4.42,4.42,0,0,0,8,12.78a6.9,6.9,0,0,1-.45,3,6.59,6.59,0,0,1-2.37,1.92,4.74,4.74,0,0,0-1.58,1.13,4.6,4.6,0,0,0,.45,1.8,5.47,5.47,0,0,1,.56,3A6.2,6.2,0,0,1,3,26.3a4.47,4.47,0,0,0-1,1.58,3.68,3.68,0,0,0,1,1.58A6.2,6.2,0,0,1,4.62,32a5.86,5.86,0,0,1-.56,3,4.6,4.6,0,0,0-.45,1.8A3.77,3.77,0,0,0,5.18,38a5.59,5.59,0,0,1,2.37,1.92A5.6,5.6,0,0,1,8,43a4.69,4.69,0,0,0,.23,1.92,3.4,3.4,0,0,0,1.8.56,5,5,0,0,1,2.82,1,5.76,5.76,0,0,1,1.46,2.7,3.94,3.94,0,0,0,.79,1.69A6.18,6.18,0,0,0,17,50.75a7,7,0,0,1,3-.11c1,0.34,1.58,1.46,2.25,2.25,0.45,0.56,1,1.58,1.35,1.58h0a5.57,5.57,0,0,0,1.69-1C26.14,53,27.15,52.1,28.17,52.1Z" fill="#9ab9c9"/><path d="M20.84,81.05a2.17,2.17,0,0,1-1.35-.45l-5.63-3.94L7,77.67a2.27,2.27,0,0,1-2.14-.79,2.21,2.21,0,0,1-.56-2.14L9.58,52a1.11,1.11,0,1,1,2.14.56L6.42,75.31v0.11H6.53l6.87-1a1.89,1.89,0,0,1,1.69.45l5.63,3.94h0.11A0.11,0.11,0,0,0,21,78.69l4.73-20.28a1.11,1.11,0,0,1,2.14.56L23.1,79.25a2.45,2.45,0,0,1-1.46,1.69A1.67,1.67,0,0,1,20.84,81.05Z" fill="#9ab9c9"/><path d="M34.48,88.94a2.48,2.48,0,0,1-.9-0.11,2.45,2.45,0,0,1-1.46-1.69L25.69,59.31a1.11,1.11,0,0,1,2.14-.56l6.42,27.83a0.11,0.11,0,0,0,.11.11h0.11l5.63-3.94a2.22,2.22,0,0,1,1.69-.34l6.87,1h0.11V83.31l-6.2-26.7A1.11,1.11,0,1,1,44.73,56l6.2,26.7a2.15,2.15,0,0,1-.56,2.14,2.57,2.57,0,0,1-2.14.79l-6.87-1L35.83,88.6A2.4,2.4,0,0,1,34.48,88.94Z" fill="#9ab9c9"/><polygon points="26.48 35.42 18.14 26.97 19.72 25.39 26.48 32.16 39.21 19.54 40.79 21.11 26.48 35.42" fill="#005693"/></svg>