<svg xmlns="http://www.w3.org/2000/svg" viewBox="0 0 50.79 49.97"><title>broken-car</title><line x1="36.54" y1="22.13" x2="50.71" y2="21.05" fill="none" stroke="#9ab9c9" stroke-linejoin="round" stroke-width="2"/><path d="M50.71,5H45.65a7.74,7.74,0,0,0-5.51,2.28L24.36,23.07l8.31-.63" fill="none" stroke="#9ab9c9" stroke-linejoin="round" stroke-width="2"/><path d="M50.71,1H45.65a11.79,11.79,0,0,0-8.34,3.45L22.13,19.64,6,23.81a5.78,5.78,0,0,0-4.27,5.58v9.75A3.06,3.06,0,0,0,4.58,42.2l5.16,0.17" fill="none" stroke="#9ab9c9" stroke-linejoin="round" stroke-width="2"/><circle cx="20.51" cy="42.1" r="6.87" fill="none" stroke="#9ab9c9" stroke-miterlimit="10" stroke-width="2"/><line x1="31.21" y1="42.37" x2="50.71" y2="42.37" fill="none" stroke="#9ab9c9" stroke-linejoin="round" stroke-width="2"/><line x1="50.71" y1="27.06" x2="45.41" y2="27.06" fill="none" stroke="#9ab9c9" stroke-linejoin="round" stroke-width="2"/><path d="M19.39,11.91A6.5,6.5,0,1,0,8.27,6.05,5.45,5.45,0,1,0,9,16a3.48,3.48,0,0,0,6.35-2s0,0,0-.05" fill="none" stroke="#9ab9c9" stroke-linecap="round" stroke-linejoin="round" stroke-width="2"/><path d="M11.9,10.53a3.48,3.48,0,0,1,0,7" fill="none" stroke="#9ab9c9" stroke-linecap="round" stroke-linejoin="round" stroke-width="2"/><line x1="35.71" y1="16.22" x2="37.12" y2="26.24" fill="none" stroke="#9ab9c9" stroke-linejoin="round" stroke-width="2"/></svg>