<svg xmlns="http://www.w3.org/2000/svg" viewBox="0 0 72.7 91.07"><title>checklist</title><path d="M19,0.67H1.6A1.54,1.54,0,0,0,.1,2.17v17.4a1.54,1.54,0,0,0,1.5,1.5H19a1.54,1.54,0,0,0,1.5-1.5V2.17A1.47,1.47,0,0,0,19,.67Zm-1.5,17.4H3.2V3.77H17.5v14.3Z" fill="#9ab9c9"/><path d="M27.7,6.77H71.2a1.54,1.54,0,0,0,1.5-1.5,1.54,1.54,0,0,0-1.5-1.5H27.7a1.54,1.54,0,0,0-1.5,1.5A1.54,1.54,0,0,0,27.7,6.77Z" fill="#9ab9c9"/><path d="M27.7,15.47H53.8a1.5,1.5,0,0,0,0-3H27.7A1.5,1.5,0,0,0,27.7,15.47Z" fill="#9ab9c9"/><path d="M0.29,6L8,15.63a1.16,1.16,0,0,0,1,.55H9.08a1.48,1.48,0,0,0,1-.46L22.3,2.31A1.34,1.34,0,0,0,22.21.37a1.34,1.34,0,0,0-1.94.09L9.18,12.67,2.51,4.45A1.35,1.35,0,0,0,.57,4.18,1.26,1.26,0,0,0,.29,6Z" fill="#005693"/><path d="M19,35.67H1.6a1.54,1.54,0,0,0-1.5,1.5v17.4a1.54,1.54,0,0,0,1.5,1.5H19a1.54,1.54,0,0,0,1.5-1.5V37.17A1.47,1.47,0,0,0,19,35.67Zm-1.5,17.4H3.2V38.77H17.5v14.3Z" fill="#9ab9c9"/><path d="M27.7,41.77H71.2a1.5,1.5,0,0,0,0-3H27.7A1.5,1.5,0,0,0,27.7,41.77Z" fill="#9ab9c9"/><path d="M27.7,50.47H53.8a1.5,1.5,0,0,0,0-3H27.7A1.5,1.5,0,1,0,27.7,50.47Z" fill="#9ab9c9"/><path d="M0.29,41L8,50.63a1.16,1.16,0,0,0,1,.55H9.08a1.48,1.48,0,0,0,1-.46l12.2-13.4a1.37,1.37,0,0,0-2-1.85L9.18,47.67,2.51,39.45a1.35,1.35,0,0,0-1.94-.28A1.26,1.26,0,0,0,.29,41Z" fill="#005693"/><path d="M19,70.67H1.6a1.54,1.54,0,0,0-1.5,1.5v17.4a1.54,1.54,0,0,0,1.5,1.5H19a1.54,1.54,0,0,0,1.5-1.5V72.17A1.47,1.47,0,0,0,19,70.67Zm-1.5,17.4H3.2V73.77H17.5v14.3Z" fill="#9ab9c9"/><path d="M27.7,76.77H71.2a1.5,1.5,0,0,0,0-3H27.7A1.5,1.5,0,0,0,27.7,76.77Z" fill="#9ab9c9"/><path d="M27.7,85.47H53.8a1.5,1.5,0,0,0,0-3H27.7A1.5,1.5,0,0,0,27.7,85.47Z" fill="#9ab9c9"/><path d="M0.29,76L8,85.63a1.16,1.16,0,0,0,1,.55H9.08a1.48,1.48,0,0,0,1-.46l12.2-13.4a1.37,1.37,0,0,0-2-1.85L9.18,82.67,2.51,74.45a1.35,1.35,0,0,0-1.94-.28A1.26,1.26,0,0,0,.29,76Z" fill="#005693"/></svg>