<svg xmlns="http://www.w3.org/2000/svg" viewBox="0 0 76.33 84.51"><title>check-diamond</title><path d="M37.83,49.74a0.5,0.5,0,0,1-.39-0.19L30.18,40.4A0.5,0.5,0,0,1,31,39.78l6.8,8.57L45.33,35a0.5,0.5,0,0,1,.87.49l-7.93,14a0.5,0.5,0,0,1-.4.25h0Z"  stroke-miterlimit="10" stroke-width="1.6"/><path d="M38.17,83.71A10.5,10.5,0,0,1,33,82.47L6,66.85a11.46,11.46,0,0,1-5.17-9V26.62a11.46,11.46,0,0,1,5.17-9L33,2A10.5,10.5,0,0,1,38.17.8,10.5,10.5,0,0,1,43.34,2l27,15.62a11.46,11.46,0,0,1,5.17,9V57.89a11.46,11.46,0,0,1-5.17,9l-27,15.62A10.5,10.5,0,0,1,38.17,83.71Zm0-81.91A9.5,9.5,0,0,0,33.5,2.9l-27,15.62A10.51,10.51,0,0,0,1.8,26.62V57.88A10.51,10.51,0,0,0,6.47,66l27,15.62a9.5,9.5,0,0,0,4.67,1.11,9.5,9.5,0,0,0,4.67-1.11L69.86,66a10.51,10.51,0,0,0,4.67-8.1V26.62a10.51,10.51,0,0,0-4.67-8.1l-27-15.62A9.5,9.5,0,0,0,38.17,1.8Z"  stroke-miterlimit="10" stroke-width="1.6"/><path d="M38.17,65.25a23,23,0,1,1,23-23A23,23,0,0,1,38.17,65.25Zm0-45a22,22,0,1,0,22,22A22,22,0,0,0,38.17,20.25Z"  stroke-miterlimit="10" stroke-width="1.6"/><path d="M18.09,32.59a0.49,0.49,0,0,1-.25-0.07l-15.64-9a0.5,0.5,0,0,1,.5-0.87l15.64,9A0.5,0.5,0,0,1,18.09,32.59Z"  stroke-miterlimit="10" stroke-width="1.6"/><path d="M58.24,32.59A0.5,0.5,0,0,1,58,31.66l15.64-9a0.5,0.5,0,0,1,.5.87l-15.64,9A0.49,0.49,0,0,1,58.24,32.59Z"  stroke-miterlimit="10" stroke-width="1.6"/><path d="M38.17,83.38a0.5,0.5,0,0,1-.5-0.5V64.75a0.5,0.5,0,0,1,1,0V82.88A0.5,0.5,0,0,1,38.17,83.38Z"  stroke-miterlimit="10" stroke-width="1.6"/></svg>
