<svg xmlns="http://www.w3.org/2000/svg" viewBox="0 0 40.91 34.44"><title>config</title><path d="M37,11.78l-0.41-.11V0.9a0.9,0.9,0,1,0-1.81,0V11.67l-0.41.11a5.25,5.25,0,0,0,0,10.16L34.75,22V33.54a0.9,0.9,0,0,0,1.81,0V22L37,21.94A5.25,5.25,0,0,0,37,11.78Zm0.38,8.08L37,20h0l-0.35.12-0.11,0-0.3.06H36.08l-0.42,0-0.42,0H35.12l-0.3-.06-0.12,0L34.36,20h0L34,19.86a3.45,3.45,0,0,1,0-6l0.36-.18h0l0.35-.12,0.11,0,0.3-.06h0l0.11,0,0.42,0,0.42,0,0.12,0h0l0.3,0.06,0.11,0L37,13.66h0l0.36,0.18A3.45,3.45,0,0,1,37.35,19.86ZM6.57,6L6.16,5.87v-5A0.9,0.9,0,1,0,4.35.9v5L3.94,6a5.25,5.25,0,0,0,0,10.16l0.41,0.11V33.54a0.9,0.9,0,0,0,1.81,0V16.24l0.41-.11A5.25,5.25,0,0,0,6.57,6Zm0.38,8.09-0.36.18h0l-0.35.12-0.11,0-0.3.06h0l-0.11,0-0.42,0-0.42,0-0.12,0h0L4.42,14.4l-0.11,0L4,14.25h0l-0.36-.18A3.46,3.46,0,0,1,1.85,11.6h0V11.06a3.45,3.45,0,0,1,1.76-3l0.36-.18H4L4.3,7.74l0.11,0,0.3-.06H4.84l0.42,0,0.42,0H5.8l0.3,0.06,0.12,0L6.56,7.86h0L6.94,8.05A3.45,3.45,0,0,1,6.95,14.06Zm14.26,6.42-0.41-.11V0.9A0.9,0.9,0,1,0,19,.9V20.37l-0.41.11a5.25,5.25,0,0,0,0,10.16L19,30.75v2.79a0.9,0.9,0,1,0,1.81,0V30.75l0.41-.11A5.25,5.25,0,0,0,21.21,20.48Zm0.38,8.09-0.36.18h0l-0.35.12-0.11,0h0l-0.3.06-0.11,0h0l-0.42,0-0.42,0h0l-0.11,0-0.3-.06h0l-0.11,0-0.35-.12h0l-0.36-.18a3.45,3.45,0,0,1,0-6l0.36-.18h0l0.35-.12,0.11,0h0l0.3-.06h0l0.1,0,0.42,0,0.42,0,0.11,0h0l0.3,0.06h0l0.11,0,0.35,0.12h0l0.36,0.18A3.45,3.45,0,0,1,21.58,28.56Z" transform="translate(0 0)"/></svg>