<svg xmlns="http://www.w3.org/2000/svg" viewBox="0 0 58.12 58.13"><title>config2</title><path d="M53.81,11.94a1.7,1.7,0,0,0,.9-0.76l3-5.33a1.67,1.67,0,0,0-.28-2L54.25,0.73a1.67,1.67,0,0,0-2-.28l-5.33,3a1.67,1.67,0,0,0-.75.86l-4.1,8L21.4,32.85l0.88,0.89L43.16,13l4.28-8.45,5.72-3.15L56.71,5l-3.17,5.69L45.11,15,24.39,35.85l0.89,0.88L45.91,16Z" fill="#9ab9c9" stroke="#9ab9c9" stroke-miterlimit="10" stroke-width="0.5"/><path d="M3.36,6.87a0.63,0.63,0,0,0-1,.2c-1.75,4.2-1,8.48,1.93,11.44a10.78,10.78,0,0,0,11.2,2.54L15.69,21l5.75,5.75a0.64,0.64,0,0,0,.85,0l5.73-5a0.63,0.63,0,0,0,0-.91l-6.1-6.09L22,14.49a10.67,10.67,0,0,0-2.54-11.2A9.81,9.81,0,0,0,12.42.35,11.55,11.55,0,0,0,8,1.27a0.63,0.63,0,0,0-.2,1l5.92,5.92-4.49,4.5ZM15,8.65a0.62,0.62,0,0,0,0-.88L9.32,2.08,10,1.92a9.91,9.91,0,0,1,2.47-.32,8.58,8.58,0,0,1,6.19,2.57,9.48,9.48,0,0,1,2,10.44,0.62,0.62,0,0,0,.13.69l5.92,5.92-4.78,4.2-5.63-5.63a0.64,0.64,0,0,0-.68-0.13,9.53,9.53,0,0,1-10.44-2A8.55,8.55,0,0,1,3,9.06l0.17-.63L8.75,14a0.68,0.68,0,0,0,.88,0Z" fill="#9ab9c9" stroke="#9ab9c9" stroke-miterlimit="10" stroke-width="0.5"/><path d="M55.92,50.05a0.62,0.62,0,0,0,.45-0.37,10.23,10.23,0,0,0-2-11.53A10.5,10.5,0,0,0,46.88,35a10.69,10.69,0,0,0-3.65.64L43,35.77l-6-6a0.62,0.62,0,0,0-.44-0.17h0a0.62,0.62,0,0,0-.44.17l-5.38,5.38a0.62,0.62,0,0,0-.18.44,0.62,0.62,0,0,0,.18.44l6,6-0.08.22a10.51,10.51,0,0,0,2.47,11.12A9.58,9.58,0,0,0,46,56.26a11.79,11.79,0,0,0,4.54-1,0.63,0.63,0,0,0,.2-1L45,48.54l4.5-4.5,5.83,5.83A0.63,0.63,0,0,0,55.92,50.05Zm-6.84-7.33L43.7,48.1a0.62,0.62,0,0,0,0,.88l5.51,5.51-0.63.17a9.78,9.78,0,0,1-2.51.33A8.45,8.45,0,0,1,40,52.49a9.33,9.33,0,0,1-2-10.36,0.63,0.63,0,0,0-.13-0.69L32,35.55l4.5-4.5,5.89,5.89a0.62,0.62,0,0,0,.69.13,9.44,9.44,0,0,1,3.77-.78A9.26,9.26,0,0,1,53.47,39a8.83,8.83,0,0,1,2.26,8.65l-0.16.64L50,42.72A0.65,0.65,0,0,0,49.08,42.72Z" fill="#9ab9c9" stroke="#9ab9c9" stroke-miterlimit="10" stroke-width="0.5"/><path d="M29.4,40.38A1.34,1.34,0,0,0,29,39.16L19,29.09A1.34,1.34,0,0,0,18,28.7a1.32,1.32,0,0,0-1.23.82,7.78,7.78,0,0,0-.25,3.89l0,0.19L11.8,38.37a3.58,3.58,0,0,1-2.32,1.31,2.38,2.38,0,0,1-.67-0.11,2,2,0,0,0-.55-0.1,0.9,0.9,0,0,0-.66.27L2.12,45.22A5,5,0,0,0,.27,48.59c-0.14,1.73.7,3.53,2.52,5.34L4.2,55.35c1.68,1.68,3.35,2.53,5,2.53A4.92,4.92,0,0,0,12.87,56l5.52-5.52a1.13,1.13,0,0,0,.17-1.21c-0.2-.71-0.27-1.52,1.2-3l4.67-4.73,0.19,0a11.85,11.85,0,0,0,1.6.11,6.42,6.42,0,0,0,2.4-.39A1.32,1.32,0,0,0,29.4,40.38Zm-1.77,0a9.51,9.51,0,0,1-2.85,0,1.52,1.52,0,0,0-1.28.43l-4.63,4.63c-2.09,2.09-1.71,3.5-1.54,4.1l0.06,0.21-5.5,5.52h0a3.64,3.64,0,0,1-2.72,1.35,6.09,6.09,0,0,1-4.09-2.17L3.67,53c-1.53-1.53-2.26-3-2.16-4.33a3.7,3.7,0,0,1,1.37-2.5l5.49-5.48L8.58,40.8a3.42,3.42,0,0,0,.91.13,4.68,4.68,0,0,0,3.2-1.68l4.63-4.63a1.5,1.5,0,0,0,.43-1.28,8.63,8.63,0,0,1,0-2.85l0.15-.65L28.29,40.18Z" fill="#005693" stroke="#005693" stroke-miterlimit="10" stroke-width="0.5"/></svg>