<svg xmlns="http://www.w3.org/2000/svg" viewBox="0 0 38.9 42.6"><path d="M24.7,42.5H24.5L0.6,36.6H0.5c-0.1,0-.1-0.1-0.2-0.1a0.38,0.38,0,0,1-.2-0.2h0A0.31,0.31,0,0,1,0,36.1V11H0V10.9H0c0.1-.1.1-0.2,0.2-0.3h0L13.8,0.2h0A0.48,0.48,0,0,1,14.3,0h0.1L38.3,5.9h0.1a0.2,0.2,0,0,1,.2.1h0a0.38,0.38,0,0,1,.2.2h0c0,0.1.1,0.1,0.1,0.2h0V31.6h0v0.1h0a0.53,0.53,0,0,1-.2.3h0L25.2,42.4h0c-0.1.1-.2,0.1-0.3,0.2h0A0.31,0.31,0,0,0,24.7,42.5Zm-22.1-7,21.3,5.2v-12l-9.5-2.3ZM25.5,29V40.1l10.9-8.4ZM1.6,12.2V34.3l11.9-9.2v-10ZM25.5,27.4l11.9,2.9V8.3L25.5,17.5v9.9ZM15,24.9l8.8,2.2V17.7L15,15.5v9.4Zm0-11,9.5,2.3L36.4,7,15,1.8V13.9h0ZM2.6,10.8l10.9,2.7V2.4Z" fill="#9ab9c9"/></svg>
