<svg xmlns="http://www.w3.org/2000/svg" viewBox="0 0 7.31 8.34"><title>differential</title><rect x="0.55" y="4.93" width="1.66" height="3.27" rx="0.56" ry="0.56" fill="none" stroke="#9ab9c9" stroke-miterlimit="10" stroke-width="0.28"/><rect x="5.3" y="4.93" width="1.66" height="3.27" rx="0.56" ry="0.56" fill="none" stroke="#9ab9c9" stroke-miterlimit="10" stroke-width="0.28"/><rect x="5.3" y="0.17" width="1.66" height="3.27" rx="0.56" ry="0.56" transform="translate(-0.24 1.23) rotate(-11.27)" fill="none" stroke="#9ab9c9" stroke-miterlimit="10" stroke-width="0.28"/><path d="M1.76,3.36l-0.53.11A0.56,0.56,0,0,1,.57,3L0.15,0.91A0.56,0.56,0,0,1,.59.26l0.53-.11a0.56,0.56,0,0,1,.65.44L2,1.46,2.2,2.7A0.56,0.56,0,0,1,1.76,3.36Z" fill="none" stroke="#9ab9c9" stroke-miterlimit="10" stroke-width="0.28"/><circle cx="3.76" cy="6.54" r="0.75" fill="none" stroke="#9ab9c9" stroke-miterlimit="10" stroke-width="0.28"/><line x1="2.21" y1="6.57" x2="3.01" y2="6.57" fill="none" stroke="#9ab9c9" stroke-miterlimit="10" stroke-width="0.28"/><line x1="4.51" y1="6.54" x2="5.3" y2="6.54" fill="none" stroke="#9ab9c9" stroke-miterlimit="10" stroke-width="0.28"/><line x1="5.29" y1="1.81" x2="2.02" y2="1.81" fill="none" stroke="#9ab9c9" stroke-miterlimit="10" stroke-width="0.28"/><line x1="3.76" y1="1.81" x2="3.76" y2="5.79" fill="none" stroke="#9ab9c9" stroke-miterlimit="10" stroke-width="0.28"/><line x1="3.21" y1="6.02" x2="4.26" y2="7.08" fill="none" stroke="#9ab9c9" stroke-miterlimit="10" stroke-width="0.28"/><line x1="3.23" y1="7.1" x2="4.29" y2="6.05" fill="none" stroke="#9ab9c9" stroke-miterlimit="10" stroke-width="0.28"/></svg>
