<svg xmlns="http://www.w3.org/2000/svg" viewBox="0 0 50 50"><title>document-ok</title><rect x="9.17" y="18.67" width="16.33" height="2" fill="#9ab9c9"/><rect x="9.17" y="28.17" width="13.33" height="2" fill="#9ab9c9"/><rect x="9.17" y="37.67" width="16.33" height="2" fill="#9ab9c9"/><polygon points="32.33 12.17 25.92 12.17 25.92 0 27.92 0 27.92 10.17 32.33 10.17 32.33 12.17" fill="#9ab9c9"/><path d="M35.5,48H2V2H27.09l8.41,8.41v5.11a12.88,12.88,0,0,1,2-.4V9.58L27.92,0H0V50H37.5V42.93a12.88,12.88,0,0,1-2-.4V48Z" fill="#9ab9c9"/><path d="M39,18A11,11,0,1,0,50,29,11,11,0,0,0,39,18Zm0,20a9,9,0,1,1,9-9A9,9,0,0,1,39,38Z" fill="#9ab9c9"/><polyline points="34.63 29.03 37.97 32.37 44.1 26.23" fill="none" stroke="#9ab9c9" stroke-miterlimit="10" stroke-width="2"/></svg>