<svg xmlns="http://www.w3.org/2000/svg" viewBox="0 0 77.25 75.75"><title>door</title><path d="M0.42,42.06L19,75.38H76.87v-75H46.72A43,43,0,0,0,7.57,25.83ZM46.72,2.47H74.87v70.9H20.09L2.63,42,9.38,26.72A41,41,0,0,1,46.72,2.47Z"  stroke-miterlimit="10" stroke-width="0.75"/><path d="M11.85,38.47H67.77v-29h-21c-13.82,0-25,6.71-30,18Zm34.88-27h19v25.1H14.9l3.69-8.26C23.28,17.77,33.8,11.47,46.72,11.47Z"  stroke-miterlimit="10" stroke-width="0.75"/><path d="M59.72,50.38h7.1a1,1,0,0,0,1-1.05,1.08,1.08,0,0,0-1-1h-7.1a1,1,0,0,0-1,1A1.08,1.08,0,0,0,59.72,50.38Z"  stroke-miterlimit="10" stroke-width="0.75"/></svg>
