<svg xmlns="http://www.w3.org/2000/svg" viewBox="0 0 383.76 252"><title>flag-gb</title><rect width="383.76" height="252" fill="#4d63a9"/><path d="M383.76,0h-48l-100,65.56V0h-88V68.25L42,0H0V34.08L75.79,83.26H0v87.3H75.18L0,220.11V252H49.74l98-64.49V252h88V186.38L337,252h46.76V220.46l-77-49.9h77V83.26H307.12l76.64-50.4V0Z" fill="#fff"/><path d="M123.54,83.26L0,0V22L92.3,83.26h31.24Z" fill="#d24a43"/><path d="M260.4,170.57L383.76,252h0V231.56l-92.12-61H260.4Z" fill="#d24a43"/><path d="M147.72,170.57H122.31L0,252H29.29l118.43-77.44v-4Z" fill="#d24a43"/><path d="M235.77,83.26h23.66L383.76,2V0h-28l-120,78.12v5.14Z" fill="#d24a43"/><polygon points="383.76 101.79 216.9 101.79 216.9 0 166.59 0 166.59 101.79 0 101.79 0 152.04 166.59 152.04 166.59 252 216.9 252 216.9 152.04 383.76 152.04 383.76 101.79" fill="#d24a43"/></svg>