<svg version="1.1" xmlns="http://www.w3.org/2000/svg" xmlns:xlink="http://www.w3.org/1999/xlink" x="0px" y="0px"
	 viewBox="183.8 268.5 228.7 305" enable-background="new 183.8 268.5 228.7 305" xml:space="preserve">
<path d="M376.1,559.3h-18.8V403.9c5.4,0,5,2.5,5,4.1v120.9c0,15.8,11.6,26.6,25.3,26.6c14.1,0,24.9-11.2,24.9-26.2
	c0-15-19.9-58.1-19.9-72.3V341.6c0-8.7-3.3-16.2-7.9-19.9l-27.4-22.4v-17.9c0-7-5.8-12.9-12.9-12.9H215.5c-7.1,0-12.9,5.8-12.9,12.9
	v277.9h-18.8v14.2h192.3V559.3z M332.3,355.7H227.5c-3.3,0-6.6-2.9-6.6-6.6v-57.3c0-3.7,3.3-6.6,6.6-6.6h104.8
	c3.3,0,6.7,2.9,6.7,6.6v57.3C339,352.8,335.6,355.7,332.3,355.7z M387.6,543.5c-7.9,0-12.9-5.8-12.9-14.5V395.6
	c0-4.6-5.4-6.6-10.4-6.6h-7.1v-72.7c3.3,2.5,5.8,5.4,5.8,8.7v24.1h16.6v103.8c0,26.2,20.8,61.5,20.8,76.4
	C400.5,537.2,395.5,543.5,387.6,543.5z"/>
</svg>
