<svg xmlns="http://www.w3.org/2000/svg" viewBox="0 0 57.28 49.24"><title>gears</title><path d="M57.28,35.44V31.34a0.61,0.61,0,0,0-.41-0.58L54.66,30a2.56,2.56,0,0,1-1.46-3.52l1-2.13a0.61,0.61,0,0,0-.12-0.7l-2.9-2.9a0.61,0.61,0,0,0-.7-0.12l-2.12,1a2.57,2.57,0,0,1-3.52-1.45l-0.79-2.22a0.61,0.61,0,0,0-.58-0.41h-4.1a0.61,0.61,0,0,0-.58.41L38,20.18a2.55,2.55,0,0,1-2.41,1.69,2.62,2.62,0,0,1-1.12-.25l-2.11-1a0.61,0.61,0,0,0-.7.12l-0.76.76a0.61,0.61,0,0,0-.18.43,0.61,0.61,0,0,0,.18.43l7.81,7.81a0.6,0.6,0,0,0,.23.14l0.25,0.09a0.6,0.6,0,0,0,.2,0,0.62,0.62,0,0,0,.3-0.08A3.49,3.49,0,1,1,39,35.87a0.61,0.61,0,1,0-.87.87A4.72,4.72,0,1,0,39.71,29l-0.15.06-0.15.06L39.29,29l-0.12-.12-5.1-5.1-0.68-.68-0.68-.68,0.92,0.26L34.57,23a3.83,3.83,0,0,0,2.49-.15,3.76,3.76,0,0,0,2.11-2.22L39.7,19.1l0.06-.17,0.06-.17h3.24l0.06,0.17,0.06,0.17,0.53,1.48a3.79,3.79,0,0,0,5.2,2.15l1.41-.67L50.47,22l0.16-.08L50.76,22l0.12,0.12,1.79,1.79,0.12,0.12,0.12,0.12-0.08.16-0.08.16L52.1,25.93a3.79,3.79,0,0,0,2.15,5.2l1.47,0.53,0.17,0.06,0.17,0.06V35l-0.17.06-0.17.06-1.48.52a3.79,3.79,0,0,0-2.15,5.2l0.67,1.41,0.08,0.16,0.08,0.16-0.12.12-0.12.12-1.79,1.79-0.12.12-0.12.12-0.16-.08-0.16-.08-1.42-.67a3.83,3.83,0,0,0-1.63-.37,3.76,3.76,0,0,0-1.45.29,3.8,3.8,0,0,0-2.12,2.23l-0.53,1.48-0.06.17L43.05,48H39.81l-0.06-.17-0.06-.17-0.52-1.48A3.8,3.8,0,0,0,37,44a3.75,3.75,0,0,0-1.45-.29,3.83,3.83,0,0,0-1.63.37l-1.42.67-0.16.08-0.16.08-0.12-.13L32,44.64,30.2,42.84l-0.12-.12-0.12-.12L30,42.43l0.08-.16,0.67-1.41a3.79,3.79,0,0,0-2.15-5.2l-1.48-.52L27,35.07,26.81,35V31.78L27,31.72l0.17-.06,1.47-.53a3.8,3.8,0,0,0,2.16-5.2,0.6,0.6,0,0,0-.12-0.16l-3-3,0,0,0,0,0,0,0,0a2.55,2.55,0,0,1,1.53-3.33l2.21-.79a0.61,0.61,0,0,0,.41-0.58V13.8a0.61,0.61,0,0,0-.41-0.58l-2.22-.79a2.56,2.56,0,0,1-1.46-3.52l1-2.13a0.61,0.61,0,0,0-.12-0.7l-2.9-2.9A0.61,0.61,0,0,0,25.18,3a0.62,0.62,0,0,0-.27.06l-2.12,1a2.58,2.58,0,0,1-1.1.25,2.54,2.54,0,0,1-1-.2,2.57,2.57,0,0,1-1.44-1.51L18.48,0.41A0.61,0.61,0,0,0,17.9,0H13.8a0.61,0.61,0,0,0-.58.41L12.43,2.62A2.57,2.57,0,0,1,11,4.14a2.54,2.54,0,0,1-1,.19,2.6,2.6,0,0,1-1.1-.25l-2.13-1a0.61,0.61,0,0,0-.7.12l-2.9,2.9a0.62,0.62,0,0,0-.12.7l1,2.12a2.57,2.57,0,0,1-1.46,3.52l-2.22.79A0.61,0.61,0,0,0,0,13.8v4.1a0.62,0.62,0,0,0,.41.58l2.21,0.79a2.56,2.56,0,0,1,1.46,3.52l-1,2.13a0.62,0.62,0,0,0,.12.7l2.9,2.9a0.61,0.61,0,0,0,.43.18,0.61,0.61,0,0,0,.27-0.06l2.12-1a2.58,2.58,0,0,1,1.1-.25,2.56,2.56,0,0,1,2.42,1.7l0.79,2.22a0.61,0.61,0,0,0,.58.41h4.1a0.61,0.61,0,0,0,.58-0.41l0.79-2.23a2.53,2.53,0,0,1,1.42-1.49,2.57,2.57,0,0,1,1-.2,2.63,2.63,0,0,1,1.12.25l2.11,1a0.6,0.6,0,0,0,.26.06,0.61,0.61,0,0,0,.43-0.18l0.76-.76a0.61,0.61,0,0,0,0-.86l-7.8-7.81a0.61,0.61,0,0,0-.23-0.15l-0.25-.09a0.61,0.61,0,0,0-.5,0,3.49,3.49,0,1,1,.75-5.51,0.61,0.61,0,0,0,.87-0.87,4.72,4.72,0,1,0-1.62,7.74l0.15-.06,0.15-.06L18,20.24l0.12,0.12,5.1,5.1,0.68,0.68,0.68,0.68-0.92-.26-0.92-.26a3.81,3.81,0,0,0-2.49.15,3.75,3.75,0,0,0-2.11,2.21l-0.53,1.49-0.06.17-0.06.17H14.23l-0.06-.17-0.06-.17-0.53-1.48a3.79,3.79,0,0,0-5.2-2.15L7,27.19l-0.16.08-0.16.08-0.12-.12-0.12-.12L4.61,25.3l-0.12-.12L4.36,25l0.08-.16,0.08-.16,0.67-1.41A3.79,3.79,0,0,0,3,18.11l-1.48-.53-0.17-.06-0.17-.06V14.23l0.17-.06,0.17-.06L3,13.59a3.79,3.79,0,0,0,2.15-5.2L4.52,7,4.44,6.81,4.36,6.65l0.12-.12L4.61,6.4,6.41,4.61l0.12-.12,0.12-.12L6.81,4.44,7,4.51,8.39,5.19A3.83,3.83,0,0,0,10,5.55a3.76,3.76,0,0,0,1.45-.29A3.8,3.8,0,0,0,13.59,3l0.53-1.48,0.06-.17,0.06-.17h3.24l0.06,0.17,0.06,0.17L18.11,3a3.8,3.8,0,0,0,2.12,2.23,3.75,3.75,0,0,0,1.45.29,3.84,3.84,0,0,0,1.63-.37l1.42-.67,0.16-.08L25,4.36l0.12,0.12L25.3,4.61,27.09,6.4l0.12,0.12,0.12,0.12-0.08.16L27.19,7,26.51,8.39a3.79,3.79,0,0,0,2.15,5.2l1.48,0.52,0.17,0.06,0.17,0.06v3.24l-0.17.06-0.17.06-1.47.53a3.79,3.79,0,0,0-2.16,5.2l0.06,0.08,0,0v0l0,0,0,0,0,0,2.94,2.94,0,0,0,0,0,0.05,0,0.05A2.56,2.56,0,0,1,28.21,30L26,30.76a0.61,0.61,0,0,0-.41.58v4.1A0.61,0.61,0,0,0,26,36l2.22,0.79a2.56,2.56,0,0,1,1.46,3.52l-1,2.13a0.61,0.61,0,0,0,.12.7l2.9,2.9a0.62,0.62,0,0,0,.7.12l2.12-1a2.57,2.57,0,0,1,1.1-.25,2.54,2.54,0,0,1,1,.19A2.57,2.57,0,0,1,38,46.62l0.79,2.22a0.61,0.61,0,0,0,.58.41h4.1a0.61,0.61,0,0,0,.58-0.41l0.79-2.22a2.57,2.57,0,0,1,3.52-1.46l2.13,1a0.62,0.62,0,0,0,.26.06A0.61,0.61,0,0,0,51.19,46l2.9-2.9a0.62,0.62,0,0,0,.12-0.7l-1-2.13a2.57,2.57,0,0,1,1.46-3.52L56.87,36A0.61,0.61,0,0,0,57.28,35.44Z"/></svg>