<svg xmlns="http://www.w3.org/2000/svg" viewBox="0 0 49.25 45.04"><title>girl</title><ellipse cx="18.98" cy="24.98" rx="1.49" ry="1.38" fill="#9ab9c9"/><ellipse cx="30.8" cy="24.98" rx="1.49" ry="1.38" fill="#9ab9c9"/><path d="M45.76,30.6c0-.27,0-0.52,0-0.79a15.47,15.47,0,0,1,.55-5.11l0.34-1.61a25.34,25.34,0,0,0-.3-8.17,0.9,0.9,0,0,0-.07-0.2C42.79,0.29,27.65,0,26.56,0H26.3L26.1,0C25.58,0,13.5-.2,6.7,7.36,3.17,11.29,1.8,16.56,2.61,23L3,24.71a15.43,15.43,0,0,1,.55,5.11c0,0.24,0,.48,0,0.71-0.06,2.13-.1,3.76-3.16,6.42a1,1,0,0,0-.18,1.26,5.61,5.61,0,0,0,4.71,2.38,9,9,0,0,0,4.35-1.28,1,1,0,1,0-1-1.71c-2.74,1.54-4.52,1.08-5.54.42l-0.39-.25,0.32-.33a8.45,8.45,0,0,0,2.79-6.79V30.54c0-.21,0-0.42,0-0.64a17.48,17.48,0,0,0-.59-5.6L4.55,22.76C3.82,16.88,5,12.15,8.15,8.68,14,2.16,24.82,2,26,2h0.29l0.24,0c1.55,0,15,.28,17.93,13.69a22.74,22.74,0,0,1,.22,7.06c-0.13.61-.23,1.12-0.33,1.57a17.51,17.51,0,0,0-.59,5.61c0,0.25,0,.49,0,0.73a8.47,8.47,0,0,0,2.79,6.81l0.32,0.33L46.53,38c-1,.66-2.79,1.11-5.54-0.43a1,1,0,0,0-1,1.71,9,9,0,0,0,4.35,1.28,5.62,5.62,0,0,0,4.71-2.38,1,1,0,0,0-.18-1.26C45.86,34.28,45.81,32.66,45.76,30.6Z" fill="#9ab9c9"/><path d="M40.44,22.53l-0.08-.1,0-.16a29.72,29.72,0,0,0-.78-5.47,1,1,0,0,0-.76-0.7l-0.11,0L38.47,16c-0.59-.18-5.84-1.84-9.12-5.22C28.42,9.8,27.8,9.21,27,9.38s-1,.77-1.45,1.84c-3.89,10-13.63,8.09-14,8a1,1,0,0,0-.41,1.91s11.59,2.39,16.18-9l0.22-.54,0.4,0.43-0.18.3h0L28,12.12c3.28,3.37,8.18,5.15,9.61,5.62l0.21,0.07,0,0.21a26.83,26.83,0,0,1,.37,9,31.75,31.75,0,0,1-1.42,5.1l-0.09.14c-2.13,2-5.14,3.06-8.94,3.06H27.54l-0.12-.14A3.44,3.44,0,0,0,24.74,34c-1.71,0-3.1,1-3.1,2.23s1.39,2.23,3.1,2.23a3.45,3.45,0,0,0,2.64-1.09l0.12-.14h0.24a16.93,16.93,0,0,0,6.4-1.13l1-.43-0.59,1c-2.59,4.27-5.91,6.43-9.89,6.43l-0.15,0H24.47c-10.75,0-12.86-15.9-12.88-16.06a1,1,0,0,0-1-.86H10.5a1,1,0,0,0-.85,1.09C9.74,28,12,45,24.41,45l0.15,0h0.1c7.71,0,11.76-6.46,13.81-11.89L38.55,33a12.93,12.93,0,0,0,3.05-6.65A6.26,6.26,0,0,0,40.44,22.53Z" fill="#9ab9c9"/></svg>