<svg xmlns="http://www.w3.org/2000/svg" viewBox="0 0 73.5 66.25"><title>hat</title><path d="M47.27,20.07a71.89,71.89,0,0,0-1.1-8.7l-2,.38a72,72,0,0,1,1.14,9.68Z" fill="#9ab9c9"/><path d="M17.87,26.91A105.33,105.33,0,0,0,34.8,28.44h0.73l2.34-1.7,2-1.44C40.31,11.59,43.2,2,45.19,2c1.71,0,4,6,4.94,16.08L52,16.74C51,7.44,48.75,0,45.19,0c-5,0-7.08,15.48-7.3,26.49H36.73C36.51,15.45,34.45,0,29.43,0c-4.64,0-7.15,12.65-7.31,25.59-1.51-.2-2.83-0.41-3.94-0.61ZM29.43,2c2,0,5,10.16,5.3,24.48-2,0-3.88-.11-5.61-0.22a79.46,79.46,0,0,1,1.29-14.47l-2-.38a81.37,81.37,0,0,0-1.33,14.71q-1.59-.13-3-0.29C24.27,11.21,27.32,2,29.43,2Z" fill="#9ab9c9"/><path d="M50.5,25.66q-1.4.17-3,.32V24.5l-2,1.41v0.23H45.13l-3.06,2.17a100.08,100.08,0,0,0,13.61-1.44l-0.36-2c-0.82.15-1.77,0.31-2.82,0.46,0-1.46-.07-2.91-0.15-4.35l-1.93,1.37Q50.48,24,50.5,25.66Z" fill="#9ab9c9"/><path d="M57.44,17.44L55.38,18.9v0.2c11.16,1.81,16.15,4.81,16.15,7,0,4-14.27,8.37-34.74,8.37H33.56l-2.69,1.85c2,0.09,3.94.13,5.91,0.13a122.34,122.34,0,0,0,18.74-1.39l-2,25.55c0,1.24-5.89,3.64-16.7,3.64s-16.7-2.4-16.7-3.72L18.87,45.71A122.62,122.62,0,0,0,36.75,47a128.15,128.15,0,0,0,14-.74l-0.22-2a126.06,126.06,0,0,1-13.8.73,122.52,122.52,0,0,1-16.55-1.07l-1.41,1-1.9,1.31L18,60.61c0,3.88,9.69,5.64,18.7,5.64s18.7-1.76,18.7-5.56l2.08-26c9.22-1.7,16-4.61,16-8.63C73.5,21.15,63.36,18.54,57.44,17.44Z" fill="#9ab9c9"/><path d="M18,35.07c2.22,0.35,4.54.64,6.94,0.86l2.51-1.79C12.09,33.06,2,29.42,2,26.09,2,23.82,7.29,20.73,19.11,19l-0.3-2C13.15,17.8,0,20.4,0,26.07c0,4,6.74,6.93,16,8.63l0.58,7.17,1.9-1.35Z" fill="#9ab9c9"/><polygon points="67.89 7.88 67.74 7.67 66.73 6.25 52.01 16.71 50.13 18.05 47.27 20.08 45.35 21.44 39.92 25.3 37.89 26.74 35.48 28.45 35.46 28.46 27.47 34.15 24.95 35.93 18.45 40.55 16.55 41.9 6.49 49.05 7.65 50.68 9.64 49.26 67.89 7.88" fill="#005693"/></svg>