<svg xmlns="http://www.w3.org/2000/svg" viewBox="0 0 84.29 59.11"><title>height</title><path d="M0,1.93V57.09A1.93,1.93,0,0,0,1.93,59H61.65a1.93,1.93,0,0,0,1.93-1.93V1.93A1.93,1.93,0,0,0,61.65,0H1.93A1.93,1.93,0,0,0,0,1.93ZM3.32,3.18H60.4V55.57H3.32V3.18Z" fill="#9ab9c9"/><path d="M75.3,0.56l-6.7,6.7a1.34,1.34,0,1,0,1.9,1.9l4.41-4.41V54.54l-4.41-4.41A1.34,1.34,0,1,0,68.6,52l6.7,6.7a1.34,1.34,0,0,0,1.9,0L83.9,52a1.34,1.34,0,1,0-1.9-1.9l-4.41,4.41V4.74L82,9.16a1.34,1.34,0,1,0,1.9-1.9l-6.7-6.7A1.34,1.34,0,0,0,75.3.56Z" fill="#9ab9c9"/><rect x="35.09" y="30.96" width="26.04" height="25.91" fill="none" stroke="#9ab9c9" stroke-linecap="round" stroke-linejoin="round" stroke-width="2"/><rect x="35.09" y="43.23" width="26.04" height="13.64" fill="none" stroke="#9ab9c9" stroke-linecap="round" stroke-linejoin="round" stroke-width="2"/><rect x="1.49" y="43.23" width="26.04" height="13.64" fill="none" stroke="#9ab9c9" stroke-linecap="round" stroke-linejoin="round" stroke-width="2"/><rect x="14.51" y="21.8" width="13.02" height="21.35" fill="none" stroke="#9ab9c9" stroke-linecap="round" stroke-linejoin="round" stroke-width="2"/><rect x="35.09" y="17.32" width="26.04" height="13.64" fill="none" stroke="#9ab9c9" stroke-linecap="round" stroke-linejoin="round" stroke-width="2"/></svg>