<svg viewBox="0 0 58 58" xmlns="http://www.w3.org/2000/svg" xmlns:xlink="http://www.w3.org/1999/xlink" xml:space="preserve" style="fill-rule:evenodd;clip-rule:evenodd;stroke-linejoin:round;stroke-miterlimit:1.41421;"><path d="M50.688,48.222c4.544,-5.121 7.312,-11.853 7.312,-19.222c0,-7.667 -2.996,-14.643 -7.872,-19.834l0,-0.001c-0.004,-0.006 -0.01,-0.008 -0.013,-0.013c-5.079,-5.399 -12.195,-8.855 -20.11,-9.126l-0.001,-0.001l-0.565,-0.015c-0.146,-0.005 -0.292,-0.01 -0.439,-0.01c-0.147,0 -0.293,0.005 -0.439,0.01l-0.563,0.015l-0.001,0.001c-7.915,0.271 -15.031,3.727 -20.11,9.126c-0.004,0.005 -0.01,0.007 -0.013,0.013c0,0 0,0.001 -0.001,0.002c-4.877,5.19 -7.873,12.166 -7.873,19.833c0,7.369 2.768,14.101 7.312,19.222c0.006,0.009 0.006,0.019 0.013,0.028c0.018,0.025 0.044,0.037 0.063,0.06c5.106,5.708 12.432,9.385 20.608,9.665l0.001,0.001l0.563,0.015c0.147,0.004 0.293,0.009 0.44,0.009c0.147,0 0.293,-0.005 0.439,-0.01l0.563,-0.015l0.001,-0.001c8.185,-0.281 15.519,-3.965 20.625,-9.685c0.013,-0.017 0.034,-0.022 0.046,-0.04c0.008,-0.008 0.008,-0.018 0.014,-0.027ZM2.025,30l12.003,0c0.113,4.239 0.941,8.358 2.415,12.217c-2.844,1.029 -5.563,2.409 -8.111,4.131c-3.747,-4.457 -6.079,-10.138 -6.307,-16.348ZM8.878,11.023c2.488,1.618 5.137,2.914 7.9,3.882c-1.692,4.107 -2.628,8.535 -2.75,13.095l-12.003,0c0.239,-6.507 2.787,-12.432 6.853,-16.977ZM55.975,28l-12.003,0c-0.122,-4.56 -1.058,-8.988 -2.75,-13.095c2.763,-0.968 5.412,-2.264 7.9,-3.882c4.066,4.545 6.614,10.47 6.853,16.977ZM28,14.963c-2.891,-0.082 -5.729,-0.513 -8.471,-1.283c2.027,-4.158 4.889,-7.911 8.471,-11.036l0,12.319ZM28,16.963l0,11.037l-11.972,0c0.123,-4.348 1.035,-8.565 2.666,-12.475c3.006,0.871 6.127,1.353 9.306,1.438ZM30,16.963c3.179,-0.085 6.3,-0.566 9.307,-1.438c1.631,3.91 2.543,8.127 2.666,12.475l-11.973,0l0,-11.037ZM30,14.963l0,-12.319c3.582,3.125 6.444,6.878 8.471,11.036c-2.742,0.77 -5.58,1.201 -8.471,1.283ZM40.409,13.072c-1.921,-4.025 -4.587,-7.692 -7.888,-10.835c5.856,0.766 11.125,3.414 15.183,7.318c-2.304,1.462 -4.748,2.638 -7.295,3.517ZM17.591,13.072c-2.547,-0.879 -4.991,-2.055 -7.294,-3.517c4.057,-3.904 9.327,-6.552 15.183,-7.318c-3.302,3.143 -5.968,6.81 -7.889,10.835ZM16.028,30l11.972,0l0,10.038c-3.307,0.088 -6.547,0.604 -9.661,1.541c-1.407,-3.655 -2.198,-7.56 -2.311,-11.579ZM28,42.038l0,13.318c-3.834,-3.345 -6.84,-7.409 -8.884,-11.917c2.867,-0.845 5.845,-1.315 8.884,-1.401ZM30,55.356l0,-13.318c3.039,0.085 6.017,0.556 8.884,1.4c-2.044,4.509 -5.05,8.573 -8.884,11.918ZM30,40.038l0,-10.038l11.972,0c-0.113,4.019 -0.904,7.924 -2.312,11.58c-3.113,-0.938 -6.353,-1.454 -9.66,-1.542ZM43.972,30l12.003,0c-0.228,6.21 -2.559,11.891 -6.307,16.348c-2.548,-1.722 -5.267,-3.102 -8.111,-4.131c1.475,-3.859 2.302,-7.978 2.415,-12.217ZM9.691,47.846c2.366,-1.572 4.885,-2.836 7.517,-3.781c1.945,4.36 4.737,8.333 8.271,11.698c-6.151,-0.805 -11.656,-3.685 -15.788,-7.917ZM32.521,55.763c3.534,-3.364 6.326,-7.337 8.271,-11.698c2.632,0.945 5.15,2.209 7.517,3.781c-4.132,4.232 -9.637,7.112 -15.788,7.917Z" style="fill:#9ab9c9;fill-rule:nonzero;"/></svg>
