<svg xmlns="http://www.w3.org/2000/svg" viewBox="0 0 52 52"><title>key</title><path d="M27.94,24.17" fill="none" stroke="#9ab9c9" stroke-miterlimit="10" stroke-width="2"/><path d="M29.88,26.12l-6.16,6.16-3.08,3.08-3.08,3.08a1,1,0,0,1-1.37,0l-0.68-.68-0.68-.68-0.68-.68-0.68-.68a1,1,0,0,1,0-1.37l3.08-3.08,3.08-3.08,3.08-3.08L25.77,22l-1.63-1.63a3.37,3.37,0,0,1,0-4.76l3.35-3.35a3.37,3.37,0,0,1,4.76,0l7.59,7.59a3.37,3.37,0,0,1,0,4.76L36.49,28a3.37,3.37,0,0,1-4.76,0Z" fill="none" stroke="#9ab9c9" stroke-miterlimit="10" stroke-width="2"/><line x1="34.43" y1="20.65" x2="31.46" y2="17.68" fill="none" stroke="#9ab9c9" stroke-miterlimit="10" stroke-width="2"/><path d="M39.76,46.88a24.86,24.86,0,0,1-9,3.66,25.07,25.07,0,0,1-14.18-1.37,24.81,24.81,0,0,1-4.35-2.29,25.24,25.24,0,0,1-7.13-7.13,24.86,24.86,0,0,1-3.66-9A25.07,25.07,0,0,1,2.83,16.59a24.81,24.81,0,0,1,2.29-4.35,25.11,25.11,0,0,1,3.2-3.92" fill="none" stroke="#9ab9c9" stroke-miterlimit="10" stroke-width="2"/><path d="M12.24,5.12a24.86,24.86,0,0,1,9-3.66A25.07,25.07,0,0,1,35.41,2.83a24.81,24.81,0,0,1,4.35,2.29,25.24,25.24,0,0,1,7.13,7.13,24.86,24.86,0,0,1,3.66,9,25.07,25.07,0,0,1-1.37,14.18,24.81,24.81,0,0,1-2.29,4.35,25.11,25.11,0,0,1-3.2,3.92" fill="none" stroke="#9ab9c9" stroke-miterlimit="10" stroke-width="2"/><polyline points="1.51 9.23 8.32 8.32 9.23 15.14" fill="none" stroke="#9ab9c9" stroke-miterlimit="10" stroke-width="2"/><polyline points="50.49 42.77 43.68 43.68 42.77 36.86" fill="none" stroke="#9ab9c9" stroke-miterlimit="10" stroke-width="2"/></svg>