<svg xmlns="http://www.w3.org/2000/svg" viewBox="0 0 51.17 50.42"><title>key2</title><path d="M29.19,36.87l-8.73,3c-2.26-.38-5.11-3.6-2.29-5.22,15.38-9.24,17.33-8.2,19.7-8.2s12.2,4.7,12.2,4.7L47.65,46.34l-5.3-.21a29.69,29.69,0,0,0-6.68.49L21.39,49.31a6.68,6.68,0,0,1-4.2-.58L4.8,42.6A3.22,3.22,0,0,1,3.09,39h0a3,3,0,0,1,3.52-2.19L12.94,39" fill="none" stroke="#9ab9c9" stroke-miterlimit="10" stroke-width="2"/><path d="M15.77,13.89" fill="none" stroke="#9ab9c9" stroke-miterlimit="10" stroke-width="2"/><path d="M17.71,15.83L11.55,22,8.47,25.07,5.39,28.14a1,1,0,0,1-1.37,0l-0.68-.68-0.68-.68L2,26.09l-0.68-.68a1,1,0,0,1,0-1.37L4.36,21l3.08-3.08,3.08-3.08,3.08-3.08L12,10.09a3.37,3.37,0,0,1,0-4.76L15.32,2a3.37,3.37,0,0,1,4.76,0l7.59,7.59a3.37,3.37,0,0,1,0,4.76l-3.35,3.35a3.37,3.37,0,0,1-4.76,0Z" fill="none" stroke="#9ab9c9" stroke-miterlimit="10" stroke-width="2"/><line x1="22.26" y1="10.37" x2="19.29" y2="7.4" fill="none" stroke="#9ab9c9" stroke-miterlimit="10" stroke-width="2"/></svg>