<svg xmlns="http://www.w3.org/2000/svg" viewBox="0 0 44.01 43.28"><title>length</title><path d="M0,1v27.8a1,1,0,0,0,1,1H43a1,1,0,0,0,1-1V1a1,1,0,0,0-1-1H1A1,1,0,0,0,0,1ZM1.67,1.6H42.41V28H1.67V1.6Z" fill="#9ab9c9"/><path d="M43.76,37.48l-4.32-4.32a0.86,0.86,0,1,0-1.22,1.22l2.85,2.85H3L5.8,34.38a0.86,0.86,0,1,0-1.22-1.22L0.25,37.48a0.86,0.86,0,0,0,0,1.22L4.58,43A0.86,0.86,0,1,0,5.8,41.8L3,39H41.06L38.21,41.8A0.86,0.86,0,1,0,39.44,43l4.32-4.32A0.86,0.86,0,0,0,43.76,37.48Z" fill="#9ab9c9"/><rect x="26.65" y="15.6" width="16.13" height="13.06" fill="none" stroke="#9ab9c9" stroke-linecap="round" stroke-linejoin="round" stroke-width="2"/><rect x="26.65" y="21.79" width="16.13" height="6.88" fill="none" stroke="#9ab9c9" stroke-linecap="round" stroke-linejoin="round" stroke-width="2"/><rect x="10.58" y="21.79" width="16.13" height="6.88" fill="none" stroke="#9ab9c9" stroke-linecap="round" stroke-linejoin="round" stroke-width="2"/></svg>
