<svg xmlns="http://www.w3.org/2000/svg" viewBox="0 0 51.4 52.67"><title>like</title><path d="M15.63,49.52c1.31,0.21,4.13.63,5.79,0.82s3.48,0.35,5.42.47S30.86,51,33,51a22.09,22.09,0,0,0,4.54-.41,11.23,11.23,0,0,0,3.54-1.34,10.05,10.05,0,0,0,2.74-2.47A17,17,0,0,0,46,43c0.65-1.5,1.2-3,1.68-4.53s0.88-3,1.22-4.34,0.62-2.65.84-3.78,0.4-2.1.55-2.85A4.35,4.35,0,0,0,49.61,24a6.19,6.19,0,0,0-2.94-2,17.42,17.42,0,0,0-4-.84,39.2,39.2,0,0,0-4-.18h-7a1,1,0,0,1-.79-0.39,1,1,0,0,1-.17-0.86l0.53-2,0.67-2.52,0.73-2.77c0.24-.93.48-1.86,0.71-2.73a6.86,6.86,0,0,0,0-3.36A7.7,7.7,0,0,0,29.94,1.7,4.47,4.47,0,0,0,27.73,1c-0.5,0-.77.45-1,1.24s-0.45,1.92-.82,3.28a24.07,24.07,0,0,1-1.75,4.66,22.89,22.89,0,0,1-3.81,5.4,11.6,11.6,0,0,0-2.11,2.93c-0.57,1.08-1.06,2.22-1.58,3.34A18.72,18.72,0,0,1,14.88,25a8.06,8.06,0,0,1-2.67,2.41,2.31,2.31,0,0,0-.47.34,2.2,2.2,0,0,0-.36.44,2.09,2.09,0,0,0-.23.52,2,2,0,0,0-.08.57V46" fill="none" stroke="#9ab9c9" stroke-miterlimit="10" stroke-width="2"/><rect x="1" y="24.67" width="10.06" height="27" rx="1" ry="1" fill="none" stroke="#9ab9c9" stroke-miterlimit="10" stroke-width="2"/></svg>