<svg xmlns="http://www.w3.org/2000/svg" viewBox="0 0 33.69 38.26"><title>marker</title><path d="M25.15,35.93L16.8,38.26,8.4,35.93,0,38.26,4.67,23.33l3-.7,1,1.26-3,.84L1.91,36.39l6.53-1.87,8.4,2.33,8.4-2.33,6.53,1.87L28,24.73l-3-.84,1-1.26,3,0.7,4.67,14.93Zm1.91-17.26-10.27,14-10.27-14h0a11.93,11.93,0,0,1-1.91-6.53,12.13,12.13,0,0,1,24.27,0A11.93,11.93,0,0,1,27,18.66h0Zm0.47-6.35A10.83,10.83,0,0,0,16.8,1.4,10.83,10.83,0,0,0,6.07,12.32,11,11,0,0,0,7.75,18.2h0l9.1,12.6,9.1-12.6h0A11,11,0,0,0,27.53,12.32ZM16.8,16.8a4.67,4.67,0,1,1,4.67-4.67A4.68,4.68,0,0,1,16.8,16.8Zm0-7.93a3.27,3.27,0,1,0,3.27,3.27A3.25,3.25,0,0,0,16.8,8.86Z"/></svg>