<svg xmlns="http://www.w3.org/2000/svg" viewBox="0 0 51.78 51.78"><title>modifications</title><path d="M40.85,23.27C40.43,23.16,40,23.07,39.58,23L39,22.92l-0.51-.05c-0.41,0-.81-0.06-1.23-0.06a14.48,14.48,0,0,0-3.09.34h0l-0.56.14-0.74.21-0.6.2q-0.5.18-1,.4l-0.6.29-0.68.37-0.51.3c-0.33.21-.65,0.43-1,0.66L28.2,26c-0.22.18-.44,0.36-0.65,0.55L27.17,27c-0.29.28-.57,0.57-0.83,0.88a14.45,14.45,0,0,0-3.2,6.38H19a5.57,5.57,0,0,1-5.57-5.57V19A5.57,5.57,0,0,1,19,13.4h9.67A5.57,5.57,0,0,1,34.21,19V20.1a17.33,17.33,0,0,1,2-.24V19a7.57,7.57,0,0,0-7.57-7.57H24.8V0H0V24.8H8.4v-2H2V2H22.8v9.4H19A7.57,7.57,0,0,0,11.4,19v9.67A7.57,7.57,0,0,0,19,36.21h3.89c0,0.36-.06.72-0.06,1.09A14.49,14.49,0,1,0,40.85,23.27ZM37.29,49.78A12.49,12.49,0,1,1,49.78,37.29,12.5,12.5,0,0,1,37.29,49.78Z" fill="#9ab9c9"/></svg>