<svg xmlns="http://www.w3.org/2000/svg" viewBox="0 0 27.2 30.96">
<path fill="#9ab9c9" d="M5.31,9.43H17.5A0.85,0.85,0,0,0,18.44,9a0.83,0.83,0,0,0-.94-0.47H5.31A0.83,0.83,0,0,0,4.37,9,0.83,0.83,0,0,0,5.31,9.43Z"/>
<path fill="#9ab9c9" d="M5.31,5.36H17.5a0.85,0.85,0,0,0,.94-0.47,0.83,0.83,0,0,0-.94-0.47H5.31a0.83,0.83,0,0,0-.94.47A0.83,0.83,0,0,0,5.31,5.36Z"/><path fill="#9ab9c9" d="M22.81,17.49l-0.23-.1V17.33l-0.45-.12L21.25,17v0L20.83,17l-0.6,0-0.36,0V16.53s0-.83,0-1L19.8,15.1a3.87,3.87,0,0,0-2.32-2.24,13.29,13.29,0,0,0-5.39-1,13.21,13.21,0,0,0-5.4,1,3.64,3.64,0,0,0-2.36,2.48l0,9.36v0.54l0.25,0.66L4.64,26l0.08,0.07h0l0.11,0.09a9.17,9.17,0,0,0,1.86,1.31,14.24,14.24,0,0,0,7.41.91l0.2,0,0.13,0.15A7.34,7.34,0,0,0,19.92,31a7.16,7.16,0,0,0,7.27-7A7,7,0,0,0,22.81,17.49ZM7,13.59a14.43,14.43,0,0,1,10.1,0c1.2,0.56,1.91,1.3,1.94,2a1.92,1.92,0,0,1-.89,1.46l-0.11.06a7.65,7.65,0,0,0-2.28,1l-0.09,0a14.06,14.06,0,0,1-3.58.44A12.53,12.53,0,0,1,7,17.69a2.94,2.94,0,0,1-1.92-1.86V15.55A2.91,2.91,0,0,1,7,13.59Zm5.64,10.86,0,0.39H12.09a12.57,12.57,0,0,1-5.05-1c-1.22-.56-1.92-1.32-1.92-2.08V20.46L5.7,20.86a6.62,6.62,0,0,0,1,.55,13.25,13.25,0,0,0,5.4,1h0.73l-0.07.44a7,7,0,0,0-.08,1.06C12.66,24.11,12.67,24.28,12.68,24.45ZM12,21.66a12.1,12.1,0,0,1-4.94-1c-1.22-.56-1.92-1.32-1.92-2.08V17.44L5.7,17.86a6.45,6.45,0,0,0,1,.56,13.24,13.24,0,0,0,5.4,1c0.51,0,1,0,1.48-.07l0.81-.07L13.91,20a6.84,6.84,0,0,0-.77,1.42l-0.09.22H12.82Zm1.19,6c-0.37,0-.71,0-1.06,0a12.46,12.46,0,0,1-5.06-1c-1.22-.56-1.92-1.31-1.92-2.05V23.63L5.7,24a6.78,6.78,0,0,0,1,.56,13.22,13.22,0,0,0,5.4,1h0.77l0.08,0.27a6.75,6.75,0,0,0,.52,1.24l0.28,0.51Zm6.77,2.48a6.24,6.24,0,1,1,0-12.47,6.89,6.89,0,0,1,1.42.15L21.83,18a6.25,6.25,0,0,1,4.55,6A6.36,6.36,0,0,1,19.92,30.17Z"/>
<path fill="#9ab9c9" d="M4.88,25.47V25.18H2.74A1.81,1.81,0,0,1,.92,23.36V2.74A1.81,1.81,0,0,1,2.74.92h17a1.81,1.81,0,0,1,1.81,1.81V17.67l0.75,0.17V2.74A2.57,2.57,0,0,0,19.74.17h-17A2.57,2.57,0,0,0,.17,2.74V23.36a2.57,2.57,0,0,0,2.56,2.56H4.85Z" stroke-miterlimit="10" stroke-width="0.35"/>
</svg>
