<svg xmlns="http://www.w3.org/2000/svg" viewBox="0 0 56 56"><title>percent2</title><line x1="17.38" y1="38.62" x2="38.62" y2="17.38" fill="none" stroke="#9ab9c9" stroke-miterlimit="10" stroke-width="2"/><circle cx="19.26" cy="19.26" r="5.16" fill="none" stroke="#9ab9c9" stroke-miterlimit="10" stroke-width="2"/><circle cx="36.74" cy="36.74" r="5.16" fill="none" stroke="#9ab9c9" stroke-miterlimit="10" stroke-width="2"/><path d="M55,28c0,3.39-4.52,5.86-5.74,8.8s0.14,8-2.16,10.29-7.23.9-10.29,2.16S31.39,55,28,55s-5.86-4.52-8.8-5.74-8,.14-10.29-2.16S8,39.86,6.74,36.8,1,31.39,1,28s4.52-5.86,5.74-8.8-0.14-8,2.16-10.29S16.14,8,19.2,6.74,24.61,1,28,1s5.86,4.52,8.8,5.74,8-.14,10.29,2.16S48,16.14,49.26,19.2,55,24.61,55,28Z" fill="none" stroke="#9ab9c9" stroke-miterlimit="10" stroke-width="2"/></svg>