<svg xmlns="http://www.w3.org/2000/svg" viewBox="0 0 66.65 90.75"><title>percent-label</title><path d="M48.87,3.68l-10.6,10.6,0.3,0.8a4.67,4.67,0,0,1,.3,1.7,5.5,5.5,0,1,1-5.5-5.5,7.72,7.72,0,0,1,1.5.2l0.7,0.2,11.3-11.3H21.07L0.38,21.08v69.3h65.9V21.08Zm14.7,84.1H3V22.17L22.18,3h18.4l-5.8,5.8a7.57,7.57,0,0,0-1.5-.1,8.1,8.1,0,1,0,8.1,8.1h0a8.81,8.81,0,0,0-.2-1.7l7.6-7.6,14.8,14.8v65.5Z" fill="#9ab9c9" stroke="#9ab9c9" stroke-miterlimit="10" stroke-width="0.75"/><path d="M21.87,53.08a7.7,7.7,0,1,0-7.7-7.7h0A7.7,7.7,0,0,0,21.87,53.08Zm0-12.7a5,5,0,0,1,5,5,5.08,5.08,0,0,1-5,5,5,5,0,0,1-5-5A5.08,5.08,0,0,1,21.87,40.38Z" fill="#005693" stroke="#005693" stroke-miterlimit="10" stroke-width="0.75"/><path d="M44.68,60.47a7.7,7.7,0,1,0,7.7,7.7h0A7.7,7.7,0,0,0,44.68,60.47Zm0,12.6a5,5,0,1,1,5-5A5,5,0,0,1,44.68,73.07Z" fill="#005693" stroke="#005693" stroke-miterlimit="10" stroke-width="0.75"/><path d="M13.38,76.68a1.22,1.22,0,0,0,.9.4,1.09,1.09,0,0,0,.9-0.4l38-38a1.34,1.34,0,0,0-1.9-1.9h0l-38,38a1.3,1.3,0,0,0,0,1.84Z" fill="#005693" stroke="#005693" stroke-miterlimit="10" stroke-width="0.75"/></svg>