<svg xmlns="http://www.w3.org/2000/svg" viewBox="0 0 62.11 62.11"><title>percent</title><path d="M31.05,2.5a8.17,8.17,0,0,1,2.11,1.79,9.9,9.9,0,0,0,4.25,3A6,6,0,0,0,39,7.52a14.16,14.16,0,0,0,3.79-.7,10.89,10.89,0,0,1,2.4-.51h0.19a8.93,8.93,0,0,1,.88,2.53,10.05,10.05,0,0,0,2.2,4.83,10.05,10.05,0,0,0,4.83,2.2,8.87,8.87,0,0,1,2.53.88,8.87,8.87,0,0,1-.5,2.59,10.18,10.18,0,0,0-.51,5.33,9.9,9.9,0,0,0,3,4.25A8.27,8.27,0,0,1,59.61,31a8,8,0,0,1-1.79,2.12,9.9,9.9,0,0,0-3,4.25,10.18,10.18,0,0,0,.51,5.33,8.87,8.87,0,0,1,.5,2.59,8.87,8.87,0,0,1-2.53.88,10.05,10.05,0,0,0-4.83,2.2,10.05,10.05,0,0,0-2.2,4.83,8.93,8.93,0,0,1-.88,2.53H45.14a10.88,10.88,0,0,1-2.4-.51,14.16,14.16,0,0,0-3.79-.7,6,6,0,0,0-1.54.19,9.9,9.9,0,0,0-4.25,3,8.27,8.27,0,0,1-2.1,1.79,8,8,0,0,1-2.12-1.79,9.9,9.9,0,0,0-4.25-3,6,6,0,0,0-1.54-.19,14.16,14.16,0,0,0-3.79.7,10.88,10.88,0,0,1-2.4.51H16.77a8.92,8.92,0,0,1-.88-2.53,10.05,10.05,0,0,0-2.2-4.83,10.05,10.05,0,0,0-4.83-2.2,8.87,8.87,0,0,1-2.53-.88,8.87,8.87,0,0,1,.5-2.59,10.18,10.18,0,0,0,.51-5.33,9.9,9.9,0,0,0-3-4.25,8.27,8.27,0,0,1-1.79-2.1,8,8,0,0,1,1.79-2.12,9.9,9.9,0,0,0,3-4.25,10.18,10.18,0,0,0-.51-5.33,8.87,8.87,0,0,1-.5-2.59,8.87,8.87,0,0,1,2.53-.88,10.05,10.05,0,0,0,4.83-2.2,10.05,10.05,0,0,0,2.2-4.83,8.93,8.93,0,0,1,.88-2.53H17a10.88,10.88,0,0,1,2.4.51,14.16,14.16,0,0,0,3.79.7,6,6,0,0,0,1.54-.19,9.9,9.9,0,0,0,4.25-3A8.17,8.17,0,0,1,31.05,2.5m0-2.5c-2.6,0-4.61,4.27-7,4.92a3.45,3.45,0,0,1-.89.11C21.25,5,18.84,3.82,17,3.82a2.83,2.83,0,0,0-1.44.34c-2.2,1.28-1.81,6-3.6,7.77s-6.49,1.39-7.77,3.6,1.42,6,.76,8.53S0,28.45,0,31.05s4.27,4.61,4.92,7-2,6.35-.76,8.53,6,1.81,7.77,3.6,1.39,6.49,3.6,7.77a2.83,2.83,0,0,0,1.44.34c1.88,0,4.29-1.21,6.19-1.21a3.45,3.45,0,0,1,.89.11c2.4,0.64,4.4,4.92,7,4.92s4.61-4.27,7-4.92A3.45,3.45,0,0,1,39,57.09c1.91,0,4.31,1.21,6.19,1.21A2.83,2.83,0,0,0,46.58,58c2.2-1.28,1.81-6,3.6-7.77s6.49-1.39,7.77-3.6-1.42-6-.76-8.53,4.92-4.4,4.92-7-4.27-4.61-4.92-7,2-6.35.76-8.53-6-1.81-7.77-3.6-1.39-6.49-3.6-7.77a2.83,2.83,0,0,0-1.44-.34C43.26,3.82,40.86,5,39,5a3.45,3.45,0,0,1-.89-0.11c-2.4-.64-4.4-4.92-7-4.92h0Z" fill="#9ab9c9"/><line x1="20.85" y1="41.26" x2="41.26" y2="20.85" fill="none" stroke="#005693" stroke-miterlimit="10" stroke-width="2.5"/><circle cx="22.79" cy="23.63" r="3.98" fill="none" stroke="#005693" stroke-miterlimit="10" stroke-width="2.5"/><circle cx="39.31" cy="38.48" r="3.98" fill="none" stroke="#005693" stroke-miterlimit="10" stroke-width="2.5"/></svg>