<svg xmlns="http://www.w3.org/2000/svg" viewBox="0 0 24.2 31.06"><title>placeholder</title><path d="M12.1,31.06a0.89,0.89,0,0,1-.65-0.28C11,30.28,0,18.57,0,12.1a12.1,12.1,0,1,1,24.2,0c0,6.47-11,18.19-11.45,18.68A0.89,0.89,0,0,1,12.1,31.06Zm0-29.28A10.33,10.33,0,0,0,1.78,12.1c0,4.48,6.93,13,10.32,16.77,3.39-3.73,10.32-12.29,10.32-16.77A10.33,10.33,0,0,0,12.1,1.77Z" fill="#010002"/><path d="M12.1,15.88a5.12,5.12,0,1,1,5.12-5.12A5.12,5.12,0,0,1,12.1,15.88Zm0-8.46a3.34,3.34,0,1,0,3.34,3.34A3.35,3.35,0,0,0,12.1,7.43Z" fill="#010002"/></svg>