<svg xmlns="http://www.w3.org/2000/svg" viewBox="0 0 55.74 62.41"><title>points</title><path d="M41.66,1.25A12.84,12.84,0,0,0,28.82,14.09c0,10.82,10.59,19.31,12.84,19.31S54.49,24.9,54.49,14.09A12.84,12.84,0,0,0,41.66,1.25Z" fill="none" stroke="#005693" stroke-miterlimit="10" stroke-width="2.5"/><circle cx="41.66" cy="13.99" r="4.7" fill="none" stroke="#005693" stroke-miterlimit="10" stroke-width="2.5"/><path d="M9.36,19.57a8.11,8.11,0,0,0-8.11,8.11c0,6.83,6.68,12.19,8.11,12.19s8.11-5.36,8.11-12.19A8.11,8.11,0,0,0,9.36,19.57Z" fill="none" stroke="#9ab9c9" stroke-miterlimit="10" stroke-width="2.5"/><path d="M28.8,40.87A8.11,8.11,0,0,0,20.69,49c0,6.83,6.68,12.19,8.11,12.19S36.9,55.8,36.9,49A8.11,8.11,0,0,0,28.8,40.87Z" fill="none" stroke="#9ab9c9" stroke-miterlimit="10" stroke-width="2.5"/></svg>