<svg xmlns="http://www.w3.org/2000/svg" viewBox="0 0 15.42 15.42"><path d="M14.71,15.42h-14A0.71,0.71,0,0,1,0,14.71v-11A0.71,0.71,0,0,1,.71,3h14a0.71,0.71,0,0,1,.71.71v11A0.71,0.71,0,0,1,14.71,15.42ZM1.42,14H14V4.42H1.42V14Z" transform="translate(0 0)"/><path d="M14.71,8.42h-14A0.71,0.71,0,1,1,.71,7h14A0.71,0.71,0,1,1,14.71,8.42Z" transform="translate(0 0)"/><path d="M9.71,3.42A0.71,0.71,0,0,1,9,2.71a1.29,1.29,0,1,0-2.58,0A0.71,0.71,0,0,1,5,2.71a2.71,2.71,0,0,1,5.42,0A0.71,0.71,0,0,1,9.71,3.42Z" transform="translate(0 0)"/><path d="M9.71,11.42h-4A0.71,0.71,0,0,1,5,10.71v-2a0.71,0.71,0,0,1,1.42,0V10H9V7.71a0.71,0.71,0,0,1,1.42,0v3A0.71,0.71,0,0,1,9.71,11.42Z" transform="translate(0 0)"/></svg>
