<svg xmlns="http://www.w3.org/2000/svg" viewBox="0 0 73.49 67.13"><title>ream</title><path d="M50.49,0c-12.89,0-23,4.16-23,9.46a4.19,4.19,0,0,0,.11,1H27.5v8.5a4.19,4.19,0,0,0,.1.87H27.5v8.43h0a4.19,4.19,0,0,0,.11,1H27.5v8.46a4.19,4.19,0,0,0,.1.87H27.5v0.42h0.22q1.2,0.1,2.35.25h0.07a2.89,2.89,0,0,1-.63-1.66V32.14c3.56,3.3,11.52,5.54,21,5.54s17.43-2.25,21-5.54v5.42c0,3.53-8.62,7.46-21,7.46a54,54,0,0,1-6.14-.35l0.08,0.08a5.86,5.86,0,0,1,1.31,2.16c1.52,0.13,3.11.19,4.73,0.19,9.47,0,17.43-2.25,21-5.54V47c0,3.53-8.62,7.46-21,7.46-1.57,0-3.07-.06-4.51-0.18v2c1.46,0.11,3,.18,4.51.18,12.89,0,23-4.16,23-9.46V28.22h0V9.46C73.49,4.16,63.39,0,50.49,0Zm0,2c12.37,0,21,3.93,21,7.46s-8.62,7.45-21,7.45-21-3.93-21-7.46S38.12,2,50.49,2Zm-21,16.8V13.38c3.56,3.3,11.52,5.54,21,5.54s17.43-2.25,21-5.54V18.8c0,3.53-8.62,7.46-21,7.46s-21-3.93-21-7.46h0Zm21,9.54c9.47,0,17.43-2.25,21-5.54v5.41c0,3.53-8.62,7.46-21,7.46s-21-3.93-21-7.46V22.8C33.06,26.09,41,28.34,50.49,28.34Z" fill="#9ab9c9"/><path d="M45.76,46.91a5.86,5.86,0,0,0-1.33-2.15l-0.08-.08c-2.5-2.6-7.68-4.6-14.22-5.45h0q-1.15-.15-2.35-0.25H27.51c-1.46-.11-3-0.18-4.51-0.18C10.11,38.8,0,43,0,48.26a4.2,4.2,0,0,0,.11.95H0v8.46C0,63,10.1,67.13,23,67.13S46,63,46,57.67V48.23A4.25,4.25,0,0,0,45.76,46.91ZM44,54.06v3.6c0,3.53-8.62,7.46-21,7.46S2,61.19,2,57.66V52.15c3.56,3.3,11.52,5.54,21,5.54A45.2,45.2,0,0,0,38.8,55.15a20.82,20.82,0,0,0,3-1.43A12.4,12.4,0,0,0,44,52.15V54Zm-5.32-1a27.67,27.67,0,0,1-3.25,1.1A47.41,47.41,0,0,1,23,55.69c-12.37,0-21-3.93-21-7.46s8.62-7.46,21-7.46c1.57,0,3.07.06,4.51,0.18a14.05,14.05,0,0,1,1.55.16,42.27,42.27,0,0,1,4.33.69l0.27,0.11a27.86,27.86,0,0,1,6.18,2L40.1,44a8.94,8.94,0,0,1,3.31,2.59A2.83,2.83,0,0,1,44,48.22c0,1.69-2,3.44-5.34,4.84h0Z" fill="#005693"/></svg>