<svg xmlns="http://www.w3.org/2000/svg" viewBox="0 0 58.3 58.11"><title>rouble</title><path d="M51.8,11.11L51.73,5.3a1.22,1.22,0,1,0-2.44,0V8.11l-0.42-.39a29.15,29.15,0,0,0-40.53,1A29.12,29.12,0,0,0,1.68,38.81a1.18,1.18,0,0,0,1.16.82,1.1,1.1,0,0,0,.38,0A1.24,1.24,0,0,0,4,38a26.58,26.58,0,0,1,6.08-27.63h0a26.47,26.47,0,0,1,37.09-.85L47.65,10H44.77a1.22,1.22,0,1,0,0,2.44l5.81-.07A1.18,1.18,0,0,0,51.8,11.11Z" fill="#9ab9c9"/><path d="M13.48,45.66l-5.81.07a1.22,1.22,0,0,0-1.22,1.22l0.07,5.81a1.22,1.22,0,1,0,2.44,0V49.95l0.42,0.39a29.1,29.1,0,0,0,19.78,7.77h0.35A28.75,28.75,0,0,0,50,49.36a29,29,0,0,0,6.59-30.19,1.26,1.26,0,0,0-.64-0.71A1.19,1.19,0,0,0,55,18.41a1.26,1.26,0,0,0-.71.64,1.19,1.19,0,0,0-.05.93A26.64,26.64,0,0,1,48.1,47.61a26.28,26.28,0,0,1-18.72,8H29.09a26.39,26.39,0,0,1-18-7.07l-0.47-.43h2.88A1.22,1.22,0,0,0,13.48,45.66Z" fill="#9ab9c9"/><path d="M32.83,17.49H23V28.33H19.24v2.24H23V40.9h2.47V30.57h7.36c4.68,0,7.49-2.61,7.49-6.59S37.51,17.49,32.83,17.49ZM32.66,28.33H25.47v-8.6h7.19c3.31,0,5.22,1.54,5.22,4.31S36,28.33,32.66,28.33Z" fill="#005693"/><rect x="19.24" y="34.09" width="16.49" height="2.24" fill="#005693"/></svg>