<?xml version="1.0" encoding="utf-8"?>
<!-- Generator: Adobe Illustrator 17.1.0, SVG Export Plug-In . SVG Version: 6.00 Build 0)  -->
<!DOCTYPE svg PUBLIC "-//W3C//DTD SVG 1.1//EN" "http://www.w3.org/Graphics/SVG/1.1/DTD/svg11.dtd">
<svg version="1.1" id="Слой_1" xmlns="http://www.w3.org/2000/svg" xmlns:xlink="http://www.w3.org/1999/xlink" x="0px" y="0px"
	 viewBox="0 0 50.2 51" enable-background="new 0 0 50.2 51" xml:space="preserve">
<g>
	<g>
		<path fill="#9AB9C9" d="M13.3,25.3c-3.4,0-5.9,1.3-5.9,3.2v11c-0.5-0.1-1-0.1-1.5-0.1c-3.4,0-5.9,1.3-5.9,3.2v5.1
			C0,49.6,2.5,51,5.9,51c3.4,0,5.9-1.3,5.9-3.2V47c0.5,0.1,1,0.1,1.5,0.1c3.4,0,5.9-1.3,5.9-3.2V28.5C19.3,26.7,16.8,25.3,13.3,25.3
			z M5.9,49.7c-2.5,0-4.4-0.9-4.4-1.9c0-0.1,0.1-0.2,0.1-0.3c1.1,0.6,2.6,1,4.3,1c1.8,0,3.3-0.4,4.3-1c0,0.1,0.1,0.2,0.1,0.3
			C10.4,48.9,8.4,49.7,5.9,49.7z M5.9,47.1c-2.5,0-4.4-0.9-4.4-1.9c0-0.1,0.1-0.2,0.1-0.3c1.1,0.6,2.6,1,4.3,1c1.8,0,3.3-0.4,4.3-1
			c0,0.1,0.1,0.2,0.1,0.3C10.4,46.3,8.4,47.1,5.9,47.1z M5.9,44.6c-2.5,0-4.4-0.9-4.4-1.9c0-1.1,2-1.9,4.4-1.9
			c2.5,0,4.4,0.9,4.4,1.9C10.4,43.7,8.4,44.6,5.9,44.6z M13.3,45.9c-0.5,0-1,0-1.5-0.1v-1.3c0.5,0.1,1,0.1,1.5,0.1
			c1.8,0,3.3-0.4,4.3-1c0,0.1,0.1,0.2,0.1,0.3C17.8,45,15.8,45.9,13.3,45.9z M13.3,43.3c-0.5,0-1,0-1.5-0.1v-0.5
			c0-0.3-0.1-0.5-0.2-0.8c0.5,0.1,1.1,0.1,1.6,0.1c1.8,0,3.3-0.4,4.3-1c0,0.1,0.1,0.2,0.1,0.3C17.8,42.4,15.8,43.3,13.3,43.3z
			 M13.3,40.7c-2.5,0-4.4-0.9-4.4-1.9c0-0.1,0.1-0.2,0.1-0.3c1.1,0.6,2.6,1,4.3,1c1.8,0,3.3-0.4,4.3-1c0,0.1,0.1,0.2,0.1,0.3
			C17.8,39.9,15.8,40.7,13.3,40.7z M13.3,38.2c-2.5,0-4.4-0.9-4.4-1.9c0-0.1,0.1-0.2,0.1-0.3c1.1,0.6,2.6,1,4.3,1
			c1.8,0,3.3-0.4,4.3-1c0,0.1,0.1,0.2,0.1,0.3C17.8,37.3,15.8,38.2,13.3,38.2z M13.3,35.6c-2.5,0-4.4-0.9-4.4-1.9
			c0-0.1,0.1-0.2,0.1-0.3c1.1,0.6,2.6,1,4.3,1c1.8,0,3.3-0.4,4.3-1c0,0.1,0.1,0.2,0.1,0.3C17.8,34.7,15.8,35.6,13.3,35.6z M13.3,33
			c-2.5,0-4.4-0.9-4.4-1.9c0-0.1,0.1-0.2,0.1-0.3c1.1,0.6,2.6,1,4.3,1c1.8,0,3.3-0.4,4.3-1c0,0.1,0.1,0.2,0.1,0.3
			C17.8,32.2,15.8,33,13.3,33z M13.3,30.5c-2.5,0-4.4-0.9-4.4-1.9c0-1.1,2-1.9,4.4-1.9c2.5,0,4.4,0.9,4.4,1.9
			C17.8,29.6,15.8,30.5,13.3,30.5z M49.4,17.4c-1.6-6-5.5-11.1-10.9-14.2C35,1.1,30.9,0,26.9,0C18.5,0,10.8,4.5,6.6,11.7
			c-4,7-4,15.3-0.7,22.1v-6.9c-0.3-2-0.4-4.1-0.1-6.1c0.3-2.8,1.3-5.5,2.7-8c1-1.7,2.1-3.2,3.5-4.5c1.3-1.3,2.8-2.4,4.4-3.3
			c3.2-1.8,6.8-2.8,10.5-2.8c1.8,0,3.6,0.2,5.3,0.7c1.8,0.5,3.6,1.2,5.2,2.2c2.5,1.4,4.6,3.3,6.3,5.6c1.7,2.2,2.9,4.7,3.6,7.3
			c0.7,2.7,0.9,5.4,0.6,8.1c-0.3,2.8-1.3,5.5-2.7,8c-1,1.7-2.1,3.2-3.5,4.5c-1.3,1.3-2.8,2.4-4.4,3.3c-3.2,1.8-6.8,2.8-10.5,2.8
			c-1.8,0-3.6-0.2-5.3-0.7c0,0,0,0-0.1,0v2.2c1.8,0.4,3.6,0.7,5.4,0.7c8.3,0,16.1-4.5,20.2-11.7C50.2,29.7,51,23.4,49.4,17.4z
			 M26.8,6.7c-0.6,0-1.1,0.5-1.1,1.1l0,15.5c0,0.4,0.2,0.8,0.5,1l13.5,7.8c0.2,0.1,0.3,0.1,0.5,0.1c0.4,0,0.8-0.2,0.9-0.5
			c0.1-0.2,0.2-0.5,0.1-0.8c-0.1-0.3-0.3-0.5-0.5-0.7l-13-7.5v-15C27.9,7.2,27.4,6.7,26.8,6.7z"/>
	</g>
</g>
</svg>
