<svg xmlns="http://www.w3.org/2000/svg" viewBox="0 0 52 52"><title>settings</title><path d="M45.74,30.74h3.72A1.55,1.55,0,0,0,51,29.19V22.81a1.55,1.55,0,0,0-1.55-1.55H45.74a20.16,20.16,0,0,0-2.43-5.86l2.63-2.63a1.55,1.55,0,0,0,0-2.19L41.42,6.06a1.55,1.55,0,0,0-2.19,0L36.6,8.69a20.16,20.16,0,0,0-5.86-2.43V2.55A1.55,1.55,0,0,0,29.19,1H22.81a1.55,1.55,0,0,0-1.55,1.55V6.26A20.16,20.16,0,0,0,15.4,8.69L12.77,6.06a1.55,1.55,0,0,0-2.19,0L6.06,10.58a1.55,1.55,0,0,0,0,2.19L8.69,15.4a20.16,20.16,0,0,0-2.43,5.86H2.55A1.55,1.55,0,0,0,1,22.81v6.39a1.55,1.55,0,0,0,1.55,1.55H6.26A20.16,20.16,0,0,0,8.69,36.6L6.06,39.23a1.55,1.55,0,0,0,0,2.19l4.52,4.52a1.55,1.55,0,0,0,2.19,0l2.63-2.63a20.16,20.16,0,0,0,5.86,2.43v3.72A1.55,1.55,0,0,0,22.81,51h6.39a1.55,1.55,0,0,0,1.55-1.55V45.74" fill="none" stroke="#9ab9c9" stroke-miterlimit="10" stroke-width="2"/><path d="M47.53,41.25l-11-11A11.29,11.29,0,0,0,28.26,14.9a11.13,11.13,0,0,0-4.05-.08,1,1,0,0,0-.54,1.72l6.52,6.19a1,1,0,0,1,0,1.41L25.15,29.5a1,1,0,0,1-1.41,0l-7.07-6.71a1,1,0,0,0-1.67.5A11.3,11.3,0,0,0,29.91,36.62L41,47.74a4.59,4.59,0,0,0,6.49,0h0A4.59,4.59,0,0,0,47.53,41.25Z" fill="none" stroke="#9ab9c9" stroke-miterlimit="10" stroke-width="2"/></svg>