<?xml version="1.0" encoding="utf-8"?>
<!-- Generator: Adobe Illustrator 17.1.0, SVG Export Plug-In . SVG Version: 6.00 Build 0)  -->
<!DOCTYPE svg PUBLIC "-//W3C//DTD SVG 1.1//EN" "http://www.w3.org/Graphics/SVG/1.1/DTD/svg11.dtd">
<svg version="1.1" id="Слой_1" xmlns="http://www.w3.org/2000/svg" xmlns:xlink="http://www.w3.org/1999/xlink" x="0px" y="0px"
	 viewBox="0 0 49 53" enable-background="new 0 0 49 53" xml:space="preserve">
<g>
	<g>
		<path fill="#9AB9C9" d="M39.5,46.9l-1.4,1.4c-0.6,0.6-1.6,0.6-2.2,0l-0.4-0.4l3.1-3.1c1.2-1.2,1.2-3.3,0-4.5l-3.4-3.4l1.2-1.2
			c1.2-1.2,1.2-3.3,0-4.5l-1.7-1.7c-1.3-1.2-3.3-1.2-4.5,0l-1.6,1.6c0,0-0.1-0.1-0.2-0.2l-16-14.9c-1.2-1.2-3.1-1.3-4.3-0.1
			l-0.2,0.2l-2.5-2.6c-0.3-0.3-0.8-0.3-1.1,0l-3.8,3.9c-0.3,0.3-0.3,0.8,0,1.1l2.6,2.6l-0.2,0.2c-1.2,1.2-1.1,3.1,0.1,4.3l14.8,16.1
			c0.1,0.1,0.1,0.1,0.2,0.2l-1.6,1.6c-1.2,1.2-1.2,3.3,0,4.5l1.7,1.7c1.2,1.2,3.2,1.2,4.4,0l1.2-1.2l3.4,3.4c1.2,1.2,3.2,1.2,4.4,0
			l3.1-3.1l0.4,0.4c1.2,1.2,3.2,1.2,4.4,0l1.4-1.4c0.3-0.3,0.3-0.8,0-1.1C40.3,46.6,39.8,46.6,39.5,46.9z M31.3,30.7
			c0.6-0.6,1.6-0.6,2.2,0l1.7,1.7c0.6,0.6,0.6,1.6,0,2.2l-0.2,0.2L31,30.9L31.3,30.7z M29.9,32l3.9,3.9l-5.1,5.2l-3.9-3.9L29.9,32z
			 M1.9,18.1l2.8-2.8l1.9,1.9L3.8,20L1.9,18.1z M3.8,24.7c-0.6-0.6-0.6-1.6-0.1-2.1l5.4-5.4c0.6-0.6,1.5-0.6,2.1,0.1l16,14.9
			c0,0,0.1,0.1,0.2,0.2L18.8,41c0,0-0.1-0.1-0.2-0.2L3.8,24.7z M21.1,48.7c-0.6,0.7-1.6,0.6-2.2,0L17.2,47c-0.6-0.6-0.6-1.6,0-2.2
			l0.2-0.2l3.9,3.9L21.1,48.7z M22.4,47.4l-3.9-3.9l5.1-5.2l3.9,3.9L22.4,47.4z M24.5,47.6l9.4-9.5l0.9,0.9l-9.4,9.5L24.5,47.6z
			 M26.5,49.6l9.4-9.5l0.7,0.7l-9.4,9.5L26.5,49.6z M30.1,51c-0.5,0.5-1.1,0.6-1.7,0.4l9.3-9.3c0.2,0.6,0.1,1.2-0.4,1.7L30.1,51z
			 M47.3,10.6h-1.2c-0.3-1-0.6-1.8-1.1-2.7L45.9,7c0.6-0.6,0.6-1.6,0-2.3l-1.6-1.6c-0.6-0.6-1.7-0.6-2.3,0L41.1,4
			c-0.8-0.5-1.7-0.9-2.7-1.1V1.6c0-0.9-0.7-1.6-1.6-1.6h-2.2C33.7,0,33,0.7,33,1.6v1.2c-0.9,0.3-1.8,0.6-2.7,1.1l-0.9-0.9
			c-0.6-0.6-1.7-0.6-2.3,0l-1.6,1.6C25,5.3,25,6.4,25.6,7l0.9,0.9c-0.5,0.8-0.9,1.7-1.1,2.7h-1.2c-0.9,0-1.6,0.7-1.6,1.6v2.2
			c0,0.9,0.7,1.6,1.6,1.6h1.2c0.3,0.9,0.6,1.8,1.1,2.7l-0.9,0.9c-0.6,0.6-0.6,1.6,0,2.3l1.6,1.5c0.6,0.6,1.7,0.6,2.3,0l0.9-0.9
			c0.8,0.5,1.7,0.9,2.7,1.1V25c0,0.9,0.7,1.6,1.6,1.6h2.2c0.9,0,1.6-0.7,1.6-1.6v-1.2c0.9-0.3,1.8-0.6,2.7-1.1l0.9,0.9
			c0.6,0.6,1.7,0.6,2.3,0l1.6-1.6c0.3-0.3,0.5-0.7,0.5-1.1c0-0.4-0.1-0.8-0.5-1.1L45,18.7c0.5-0.8,0.9-1.7,1.1-2.7h1.2
			c0.9,0,1.6-0.7,1.6-1.6v-2.2C49,11.2,48.3,10.5,47.3,10.6z M47.4,14.4h-1.9c-0.4,0-0.7,0.3-0.8,0.6c-0.2,1.2-0.7,2.3-1.4,3.3
			c-0.2,0.3-0.2,0.7,0.1,1l1.3,1.4l-1.6,1.6L41.9,21c-0.3-0.3-0.7-0.3-1-0.1c-1,0.7-2.1,1.1-3.3,1.4c-0.4,0-0.6,0.4-0.6,0.8V25
			c0,0,0,0,0,0l-2.3,0v-1.9c0-0.4-0.3-0.7-0.6-0.8c-1.2-0.2-2.3-0.7-3.3-1.4c-0.1-0.1-0.3-0.1-0.5-0.1c-0.2,0-0.4,0.1-0.5,0.2
			l-1.4,1.3l-1.6-1.6l1.3-1.3c0.3-0.3,0.3-0.7,0.1-1c-0.7-1-1.1-2.1-1.4-3.3c0-0.4-0.4-0.6-0.8-0.6l-1.9,0l0-2.3H26
			c0.4,0,0.7-0.3,0.8-0.6c0.2-1.2,0.7-2.3,1.4-3.3c0.2-0.3,0.2-0.7-0.1-1l-1.3-1.4l1.6-1.6l1.3,1.3c0.3,0.3,0.7,0.3,1,0.1
			c1-0.7,2.1-1.1,3.3-1.4c0.4,0,0.6-0.4,0.6-0.8l0-1.9l2.3,0v1.9c0,0.4,0.3,0.7,0.6,0.8c1.2,0.2,2.3,0.7,3.3,1.4
			c0.3,0.2,0.7,0.2,1-0.1l1.4-1.3l1.6,1.6l-1.3,1.3c-0.3,0.3-0.3,0.7-0.1,1c0.7,1,1.1,2.1,1.4,3.3c0,0.4,0.4,0.6,0.8,0.6l1.9,0
			L47.4,14.4z M35.8,7.7c-3.1,0-5.6,2.5-5.6,5.6c0,3.1,2.5,5.6,5.6,5.6s5.6-2.5,5.6-5.6C41.3,10.2,38.8,7.7,35.8,7.7z M35.8,17.3
			c-2.2,0-4-1.8-4-4c0-2.2,1.8-4,4-4c2.2,0,4,1.8,4,4S38,17.3,35.8,17.3z"/>
	</g>
</g>
</svg>
