<svg xmlns="http://www.w3.org/2000/svg" viewBox="0 0 13.38 5.67"><title>shaft</title><path d="M6.07,1.17H8.4L8.65,1V0.15H4.52l-1.17.51V5L4.52,5.54H8.65V4.67L8.4,4.53H6.07c-0.38,0-1.56-.31-1.56-1.1V2.27C4.52,1.48,5.7,1.17,6.07,1.17Z" fill="none" stroke="#9ab9c9" stroke-miterlimit="10" stroke-width="0.25"/><polygon points="7.41 2.54 7.18 2.54 6.95 2.54 6.81 2.85 6.96 3.17 7.18 3.17 7.4 3.17 7.55 2.85 7.41 2.54" fill="none" stroke="#9ab9c9" stroke-miterlimit="10" stroke-width="0.25"/><polygon points="4.16 2.54 3.93 2.54 3.7 2.54 3.56 2.85 3.71 3.17 3.93 3.17 4.15 3.17 4.3 2.85 4.16 2.54" fill="none" stroke="#9ab9c9" stroke-miterlimit="10" stroke-width="0.25"/><circle cx="7.2" cy="2.85" r="1.02" fill="none" stroke="#9ab9c9" stroke-miterlimit="10" stroke-width="0.25"/><path d="M7.2,1.53a1.33,1.33,0,0,0,0,2.65H9.86V1.53H7.2Z" fill="none" stroke="#9ab9c9" stroke-miterlimit="10" stroke-width="0.25"/><rect x="9.86" y="0.13" width="0.48" height="5.42" fill="none" stroke="#9ab9c9" stroke-miterlimit="10" stroke-width="0.25"/><rect x="1.28" y="1.14" width="2.06" height="3.38" fill="none" stroke="#9ab9c9" stroke-miterlimit="10" stroke-width="0.25"/><rect x="10.34" y="1.14" width="2.92" height="3.38" fill="none" stroke="#9ab9c9" stroke-miterlimit="10" stroke-width="0.25"/><rect x="0.13" y="1.47" width="1.16" height="2.67" fill="none" stroke="#9ab9c9" stroke-miterlimit="10" stroke-width="0.25"/><polyline points="6.21 1.17 6.21 1.39 6.48 1.69" fill="none" stroke="#9ab9c9" stroke-miterlimit="10" stroke-width="0.25"/><polyline points="6.21 4.49 6.21 4.27 6.48 3.96" fill="none" stroke="#9ab9c9" stroke-miterlimit="10" stroke-width="0.25"/><line x1="8.23" y1="1.17" x2="8.23" y2="1.51" fill="none" stroke="#9ab9c9" stroke-miterlimit="10" stroke-width="0.25"/><line x1="8.23" y1="4.19" x2="8.23" y2="4.53" fill="none" stroke="#9ab9c9" stroke-miterlimit="10" stroke-width="0.25"/></svg>
