<svg xmlns="http://www.w3.org/2000/svg" viewBox="0 0 51.55 52.01"><title>shield2</title><path d="M40.63,2.1l-0.12,0A100.42,100.42,0,0,0,11,2.09l-0.12,0a1,1,0,0,0-.84.86,9,9,0,0,1-8.18,8A1,1,0,0,0,1,12C1.91,39.08,15,45.68,25.78,50.9,36.55,45.68,49.64,39.08,50.55,12a1,1,0,0,0-.89-1,9,9,0,0,1-8.18-8A1,1,0,0,0,40.63,2.1Z" fill="none" stroke="#9ab9c9" stroke-miterlimit="10" stroke-width="2"/><polyline points="25.78 27.7 25.78 23.38 25.78 19.07 25.78 14.76 25.78 10.44 25.78 6.13" fill="none" stroke="#9ab9c9" stroke-miterlimit="10" stroke-width="2"/><line x1="25.78" y1="36.32" x2="25.78" y2="32.01" fill="none" stroke="#9ab9c9" stroke-miterlimit="10" stroke-width="2"/><line x1="25.78" y1="44.95" x2="25.78" y2="40.64" fill="none" stroke="#9ab9c9" stroke-miterlimit="10" stroke-width="2"/></svg>