<svg xmlns="http://www.w3.org/2000/svg" viewBox="0 0 52 50"><title>spec</title><path d="M51,50h0a13.14,13.14,0,0,0-7.66-11.94L33.6,33.59v7.28L26,37.4l-7.6,3.47V33.59L8.66,38.06A13.14,13.14,0,0,0,1,50H1" fill="none" stroke="#9ab9c9" stroke-miterlimit="10" stroke-width="2"/><path d="M40.5,49" fill="none" stroke="#9ab9c9" stroke-miterlimit="10" stroke-width="2"/><path d="M26,50" fill="none" stroke="#9ab9c9" stroke-miterlimit="10" stroke-width="2"/><path d="M37,13C36.46,8.67,34.19,1,26,1S15.54,8.67,15,13h0a2,2,0,0,0-2,2v0a2,2,0,0,0,.08.56l0.79,2.73a2,2,0,0,0,1.94,1.46h0c1.58,4.43,5.12,9.86,10.25,9.86s8.67-5.43,10.25-9.86h0a2,2,0,0,0,1.94-1.46L39,15.63a2,2,0,0,0,.08-0.56v0a2,2,0,0,0-2-2h0Z" fill="none" stroke="#9ab9c9" stroke-miterlimit="10" stroke-width="2"/><line x1="30.11" y1="49" x2="42.99" y2="49" fill="none" stroke="#9ab9c9" stroke-miterlimit="10" stroke-width="2"/><path d="M36.55,10.15a14.89,14.89,0,0,1-6.44,1.44A14,14,0,0,1,17.93,5" fill="none" stroke="#9ab9c9" stroke-miterlimit="10" stroke-width="2"/></svg>