<svg xmlns="http://www.w3.org/2000/svg" viewBox="0 0 38.59 38.58"><path fill="#9ab9c9" d="M19.29,0A19.29,19.29,0,1,0,38.59,19.29,19.27,19.27,0,0,0,19.29,0Zm0,36.94A17.61,17.61,0,0,1,3.23,26.6H35.36A17.61,17.61,0,0,1,19.29,36.94ZM15.76,25a3.45,3.45,0,0,1,3.37-2.63A3.52,3.52,0,0,1,22.5,25H15.76Zm8.29,0a5.12,5.12,0,0,0-3.86-4.12L24.14,9.6A0.83,0.83,0,1,0,22.58,9l-4,11.71A5.1,5.1,0,0,0,14,25H2.58A17.65,17.65,0,1,1,36,25h-12ZM19.29,3.12a0.78,0.78,0,0,0-.82.82V6.4a0.82,0.82,0,0,0,1.64,0V3.94A0.78,0.78,0,0,0,19.29,3.12ZM34.65,18.47H32.18a0.82,0.82,0,1,0,0,1.64h2.46A0.82,0.82,0,0,0,34.65,18.47Zm-28.24,0H3.94a0.82,0.82,0,1,0,0,1.64H6.4A0.82,0.82,0,0,0,6.4,18.47ZM29.56,7.88L27.83,9.6a0.79,0.79,0,0,0,0,1.15,0.75,0.75,0,0,0,.57.25A0.89,0.89,0,0,0,29,10.75L30.71,9A0.81,0.81,0,0,0,29.56,7.88ZM9,7.88A0.81,0.81,0,0,0,7.88,9l1.72,1.72a0.79,0.79,0,0,0,1.15,0,0.79,0.79,0,0,0,0-1.15Z" transform="translate(0 0)"/></svg>
