<svg xmlns="http://www.w3.org/2000/svg" viewBox="0 0 480.55 480.56">
    <path d="M365.35,317.9c-15.7-15.5-35.3-15.5-50.9,0-11.9,11.8-23.8,23.6-35.5,35.6-3.2,3.3-5.9,4-9.8,1.8-7.7-4.2-15.9-7.6-23.3-12.2-34.5-21.7-63.4-49.6-89-81-12.7-15.6-24-32.3-31.9-51.1-1.6-3.8-1.3-6.3,1.8-9.4,11.9-11.5,23.5-23.3,35.2-35.1,16.3-16.4,16.3-35.6-.1-52.1-9.3-9.4-18.6-18.6-27.9-28-9.6-9.6-19.1-19.3-28.8-28.8-15.7-15.3-35.3-15.3-50.9.1-12,11.8-23.5,23.9-35.7,35.5-11.3,10.7-17,23.8-18.2,39.1-1.9,24.9,4.2,48.4,12.8,71.3,17.6,47.4,44.4,89.5,76.9,128.1,43.9,52.2,96.3,93.5,157.6,123.3,27.6,13.4,56.2,23.7,87.3,25.4,21.4,1.2,40-4.2,54.9-20.9,10.2-11.4,21.7-21.8,32.5-32.7,16-16.2,16.1-35.8.2-51.8Q394.05,346.35,365.35,317.9Z" transform="translate(-0.01)" fill="#9ab9c9"/>
    <path d="M346.25,238.2l36.9-6.3A165.63,165.63,0,0,0,243.05,96l-5.2,37.1A128,128,0,0,1,346.25,238.2Z" transform="translate(-0.01)" fill="#9ab9c9"/>
    <path d="M404,77.8A272.09,272.09,0,0,0,248,0l-5.2,37.1a237.42,237.42,0,0,1,200.9,194.7l36.9-6.3A274.08,274.08,0,0,0,404,77.8Z" transform="translate(-0.01)" fill="#9ab9c9"/>
</svg>
