<svg xmlns="http://www.w3.org/2000/svg" viewBox="0 0 64.6 84.2"><title>timer</title><path d="M56.6,30.6L59.8,27a1,1,0,0,0-.1-1.4L55.8,22a1.08,1.08,0,0,0-.7-0.3,0.91,0.91,0,0,0-.7.3l-3.3,3.6a31,31,0,0,0-15.8-5.9V18.3c4.8-1,8.4-4.7,8.4-9,0-5.1-5-9.3-11.2-9.3S21.4,4.1,21.4,9.3c0,4.3,3.5,7.9,8.3,9v1.4a32,32,0,0,0-16.6,6.2L9.5,22a1,1,0,0,0-1.4,0L4.2,25.6A1.07,1.07,0,0,0,4.1,27l3.5,4a0.1,0.1,0,0,1,.1.1A31.73,31.73,0,0,0,0,51.9a32.3,32.3,0,1,0,64.6,0A31.57,31.57,0,0,0,56.6,30.6Zm-1.4-6.5,2.5,2.3-2.2,2.5c-0.7-.6-1.8-1.5-2.7-2.2ZM23.4,9.3c0-4,4.1-7.3,9.2-7.3s9.2,3.3,9.2,7.3c0,3.3-2.7,6.1-6.4,7v-3a1.75,1.75,0,0,0-1.9-1.9H31.8a1.7,1.7,0,0,0-1.9,1.9v3C26.1,15.3,23.4,12.5,23.4,9.3ZM6.2,26.4l2.5-2.3,2.4,2.6c-0.9.7-2,1.6-2.7,2.2ZM32.3,82.2A30.3,30.3,0,1,1,62.6,51.9,30.34,30.34,0,0,1,32.3,82.2Z" fill="#9ab9c9"/><path d="M32.3,32.1a0.94,0.94,0,0,0,1-1V26.9a1,1,0,0,0-2,0v4.2A1.08,1.08,0,0,0,32.3,32.1Z" fill="#9ab9c9"/><path d="M57.4,50.9H53.2a1,1,0,0,0,0,2h4.2a0.94,0.94,0,0,0,1-1A1,1,0,0,0,57.4,50.9Z" fill="#9ab9c9"/><path d="M12.5,51.9a0.94,0.94,0,0,0-1-1H7.3a1,1,0,1,0,0,2h4.2A1,1,0,0,0,12.5,51.9Z" fill="#9ab9c9"/><path d="M10.1,40.2l3.7,2.1a0.9,0.9,0,0,0,.5.1,1.19,1.19,0,0,0,.9-0.5,1,1,0,0,0-.4-1.4l-3.7-2.1a1,1,0,0,0-1.4.4A1.24,1.24,0,0,0,10.1,40.2Z" fill="#9ab9c9"/><path d="M42.3,34.7a0.9,0.9,0,0,0,.5.1,1.19,1.19,0,0,0,.9-0.5l2.1-3.6a1,1,0,1,0-1.8-1l-2.1,3.6A1,1,0,0,0,42.3,34.7Z" fill="#9ab9c9"/><path d="M54.5,63.6l-3.6-2.1a1,1,0,0,0-1,1.8l3.6,2.1a0.9,0.9,0,0,0,.5.1,1.19,1.19,0,0,0,.9-0.5A1,1,0,0,0,54.5,63.6Z" fill="#9ab9c9"/><path d="M13.8,61.6l-3.6,2.1a1.11,1.11,0,0,0-.4,1.4,1.05,1.05,0,0,0,.9.5,0.9,0.9,0,0,0,.5-0.1l3.6-2.1a1.11,1.11,0,0,0,.4-1.4A0.94,0.94,0,0,0,13.8,61.6Z" fill="#9ab9c9"/><path d="M20.5,29.8a1,1,0,1,0-1.8,1l2.1,3.6a1.05,1.05,0,0,0,.9.5,0.9,0.9,0,0,0,.5-0.1,1.11,1.11,0,0,0,.4-1.4Z" fill="#9ab9c9"/><path d="M33.6,51.8L54.4,40.1a1,1,0,0,0-1-1.8L31.8,50.5a0.88,0.88,0,0,0-.5,1,2,2,0,0,0,.1.7L38.8,65a1.05,1.05,0,0,0,.9.5,0.9,0.9,0,0,0,.5-0.1,1.11,1.11,0,0,0,.4-1.4Z" fill="#005693"/></svg>