<svg xmlns="http://www.w3.org/2000/svg" viewBox="0 0 53.07 50.05"><title>truck</title><path d="M22.83,41.94l0-.11,0,0.11h0Z" fill="none"/><path d="M17.25,38h0Z" fill="none"/><path d="M16.27,50l-0.15,0Z" fill="none"/><path d="M21.68,40l0.1,0.11Z" fill="none"/><path d="M22.31,40.87L22.39,41Z" fill="none"/><path d="M17.22,50l0.36,0L17.2,50h0Z" fill="none"/><path d="M15.11,47.43l-0.25-.17Z" fill="none"/><path d="M16.46,48L16.2,47.9Z" fill="none"/><path d="M17.2,48L17,48Z" fill="none"/><path d="M15.76,47.76l-0.26-.12Z" fill="none"/><path d="M12.76,48l-0.1-.11Z" fill="none"/><path d="M12.14,47.22l-0.09-.14Z" fill="none"/><path d="M13.46,48.71l0,0Z" fill="none"/><path d="M11.65,46.27l0-.13Z" fill="none"/><path d="M21,39.38l0,0Z" fill="none"/><path d="M19.18,38.38l0.15,0.06Z" fill="none"/><path d="M20.14,38.81l0.1,0.06Z" fill="none"/><path d="M15.26,49.71l-0.15-.06Z" fill="none"/><path d="M18.17,38.13l0.15,0Z" fill="none"/><path d="M14.3,49.28l-0.1-.06Z" fill="none"/><path d="M23.19,44.7a6,6,0,0,1-.24,1.14A6,6,0,0,0,23.19,44.7Z" fill="none"/><path d="M18.37,49.94c-0.2,0-.4.07-0.59,0.08C18,50,18.17,50,18.37,49.94Z" fill="none"/><path d="M20.82,42.33c0,0.07.08,0.14,0.11,0.22C20.9,42.47,20.85,42.4,20.82,42.33Z" fill="none"/><path d="M20.41,41.66l0.17,0.23Z" fill="none"/><polygon points="45.72 2 32.96 4.48 34.39 11.84 32.43 12.23 31 4.86 18.24 7.34 23.58 34.83 51.07 29.49 51.07 29.49 51.07 29.49 45.72 2" fill="none"/><path d="M17.25,40l0.17,0Z" fill="none"/><path d="M14,46.43l-0.17-.23Z" fill="none"/><path d="M14.53,47l-0.21-.21Z" fill="none"/><path d="M13.63,45.77c0-.08-0.08-0.15-0.11-0.22C13.55,45.62,13.59,45.69,13.63,45.77Z" fill="none"/><path d="M19.34,40.67l0.25,0.17Z" fill="none"/><path d="M19.92,41.11l0.21,0.21Z" fill="none"/><path d="M18,40.13l0.26,0.07Z" fill="none"/><path d="M18.69,40.34L19,40.46Z" fill="none"/><path d="M16.69,36.07l-4.9-25.18L1.12,3.69,0,5.35l10,6.74,4.74,24.36A7.2,7.2,0,0,1,16.69,36.07Z" fill="#9ab9c9"/><path d="M17.08,38.05h0Z" fill="#9ab9c9"/><path d="M16.08,38.16c0.2,0,.4-0.07.59-0.08C16.47,38.09,16.28,38.12,16.08,38.16Z" fill="#9ab9c9"/><path d="M45.66,37.5L24.82,41.55a8,8,0,0,1,.26,1,8.08,8.08,0,0,1,.12,1L46,39.46Z" fill="#9ab9c9"/><path d="M22.84,42v0h0v0Z" fill="#9ab9c9"/><path d="M53,29.1L47.69,1.62A2,2,0,0,0,45.34,0L17.85,5.38a2,2,0,0,0-1.58,2.35l5.35,27.48A2,2,0,0,0,24,36.79l27.48-5.35h0A2,2,0,0,0,53,29.1Zm-2,.38L23.58,34.83,18.24,7.35,31,4.86l-0.19-1,2-.38,0.19,1L45.72,2l5.35,27.48h0Z" fill="#9ab9c9"/><polygon points="34.39 11.84 32.96 4.48 32.77 3.5 30.81 3.88 31 4.86 32.43 12.23 34.39 11.84" fill="#9ab9c9"/><path d="M22.84,42v0l0-.11a5.94,5.94,0,0,0-.4-0.82l-0.09-.14a6,6,0,0,0-.53-0.72L21.68,40A6,6,0,0,0,21,39.41l0,0a6,6,0,0,0-.74-0.51l-0.1-.06a6,6,0,0,0-.81-0.37l-0.15-.06a6,6,0,0,0-.86-0.23l-0.15,0A5.94,5.94,0,0,0,17.25,38H16.67c-0.2,0-.39,0-0.59.08a6,6,0,0,0-4.47,8l0,0.13a5.94,5.94,0,0,0,.4.82l0.09,0.14a6,6,0,0,0,.53.72L12.76,48a6,6,0,0,0,.66.64l0,0a6.06,6.06,0,0,0,.75.51l0.1,0.06a6,6,0,0,0,.81.37l0.15,0.06a6,6,0,0,0,.86.23l0.15,0a5.94,5.94,0,0,0,.93.08l0.38,0h0.19c0.2,0,.39,0,0.59-0.08A6,6,0,0,0,22.84,42ZM20.9,45.61a4,4,0,0,1-1.45,1.76,4,4,0,0,1-2.23.68h0L17,48A4,4,0,0,1,16.46,48L16.2,47.9a4,4,0,0,1-.44-0.14l-0.26-.12a4,4,0,0,1-.38-0.21l-0.25-.17A4,4,0,0,1,14.53,47l-0.21-.21A4,4,0,0,1,14,46.43l-0.17-.23a4,4,0,0,1-.23-0.44c0-.08-0.08-0.15-0.11-0.22A4,4,0,0,1,17.22,40h0l0.17,0a4,4,0,0,1,.57.06l0.26,0.07a4,4,0,0,1,.44.14L19,40.46a4,4,0,0,1,.38.21l0.25,0.17a4,4,0,0,1,.33.27l0.21,0.21a4,4,0,0,1,.28.34l0.17,0.23a4,4,0,0,1,.24.44c0,0.07.08,0.14,0.11,0.22A3.95,3.95,0,0,1,20.9,45.61Z" fill="#9ab9c9"/></svg>