<svg xmlns="http://www.w3.org/2000/svg" viewBox="0 0 49.26 40.03"><title>twitter</title><path d="M49.26,4.74a20.11,20.11,0,0,1-5.81,1.59A10.12,10.12,0,0,0,47.9.74a20.23,20.23,0,0,1-6.42,2.45,10.12,10.12,0,0,0-17.22,9.22A28.7,28.7,0,0,1,3.43,1.85,10.12,10.12,0,0,0,6.56,15.34,10.08,10.08,0,0,1,2,14.08s0,0.08,0,.13a10.11,10.11,0,0,0,8.11,9.91,10.16,10.16,0,0,1-2.66.35,10,10,0,0,1-1.9-.18,10.12,10.12,0,0,0,9.44,7A20.28,20.28,0,0,1,2.41,35.64,20.43,20.43,0,0,1,0,35.49,28.6,28.6,0,0,0,15.49,40c18.59,0,28.76-15.4,28.76-28.76q0-.66,0-1.31A20.47,20.47,0,0,0,49.26,4.74Z"/></svg>