<svg xmlns="http://www.w3.org/2000/svg" viewBox="0 0 44.74 54"><title>wide</title><path d="M43.05,35.54A22.21,22.21,0,1,1,19.57,2L19.15,0a24.24,24.24,0,0,0,.78,47.55H20a24.47,24.47,0,0,0,2.48.3V52h-8.3v2h18.6V52H24.45V47.93A24.2,24.2,0,0,0,44.74,36.6Z" fill="#9ab9c9"/><path d="M6.12,20.5A18.39,18.39,0,1,0,13.69,8.64,18.39,18.39,0,0,0,6.12,20.5ZM24.19,7.31a16.63,16.63,0,0,1,2.89.25A16.31,16.31,0,1,1,24.19,7.31Z" fill="#9ab9c9"/><polygon points="33.13 19.6 31.72 18.19 22.81 27.1 16.73 21.02 15.31 22.43 22.81 29.93 33.13 19.6" fill="#9ab9c9"/></svg>