<svg xmlns="http://www.w3.org/2000/svg" viewBox="0 0 38.35 26.97"><title>youtube</title><path d="M38,5.82S37.59,3.18,36.44,2A5.48,5.48,0,0,0,32.6.39C27.23,0,19.18,0,19.18,0h0s-8,0-13.42.39A5.49,5.49,0,0,0,1.91,2C0.76,3.18.38,5.82,0.38,5.82A58,58,0,0,0,0,12v2.91a58,58,0,0,0,.38,6.21s0.37,2.64,1.52,3.81c1.46,1.53,3.37,1.48,4.23,1.64,3.07,0.29,13,.39,13,0.39s8.06,0,13.42-.4a5.48,5.48,0,0,0,3.84-1.62C37.59,23.78,38,21.14,38,21.14a58.12,58.12,0,0,0,.38-6.21V12A58.12,58.12,0,0,0,38,5.82ZM15.22,18.46V7.69l10.36,5.41Z"/></svg>