<svg xmlns="http://www.w3.org/2000/svg" viewBox="0 0 70.81 56.58"><title>zero-percent</title><path d="M6.3,48.35c-4-5.35-6-12-6-20.06s2-14.72,6-20.06,9.14-8,15.42-8,11.39,2.63,15.42,8,6.12,12,6.12,20.06-2,14.72-6,20.06-9.22,8-15.49,8S10.33,53.7,6.3,48.35ZM8.08,9.85c-3.64,4.88-5.42,11-5.42,18.44S4.41,41.92,8,46.79s8.21,7.3,13.71,7.3,10.08-2.4,13.7-7.3,5.42-11.08,5.42-18.52S39.07,14.73,35.41,9.85s-8.19-7.36-13.7-7.36S11.72,5,8.08,9.85Z" fill="#9ab9c9"/><path d="M21.71,56.58c-6.32,0-11.58-2.72-15.62-8.08h0C2.09,43.14,0,36.33,0,28.28S2,13.43,6.09,8.07,15.41,0,21.71,0,33.29,2.72,37.33,8.08s6.17,12,6.17,20.21S41.41,43.14,37.41,48.5A18.84,18.84,0,0,1,21.71,56.58Zm0-56.09c-6.24,0-11.22,2.58-15.22,7.88s-6,12-6,19.91,2,14.64,6,19.91h0c4,5.3,9,7.88,15.22,7.88S33.06,53.42,37,48.19s6-12,6-19.91-2-14.6-6.07-19.91S28,0.5,21.71.5h0Zm0,53.84c-5.58,0-10.26-2.48-13.91-7.38S2.41,35.88,2.41,28.29,4.2,14.64,7.88,9.7h0c3.74-5,8.27-7.46,13.83-7.46S31.93,4.79,35.63,9.7s5.47,11,5.47,18.59S39.26,42.09,35.63,47s-8.34,7.38-13.92,7.38h0Zm0-51.54c-5.4,0-9.79,2.37-13.43,7.26h0c-3.61,4.8-5.37,10.74-5.37,18.24S4.64,41.79,8.2,46.66s8.1,7.13,13.51,7.13,10-2.42,13.51-7.18,5.37-11,5.37-18.37S38.83,14.8,35.22,9.95,27.09,2.79,21.71,2.79Z" fill="#9ab9c9"/><path d="M56.61,2.59a5.47,5.47,0,0,1,0,7.61,5.75,5.75,0,0,1-7.76,0A5.44,5.44,0,0,1,56.61,2.59Zm-0.94,3.8a2.92,2.92,0,1,0-3,3,2.89,2.89,0,0,0,3-2.79q0-.11,0-0.21h0Zm-4.4,17.07,13-22h2.61l-13,22H51.27Zm18-8.71a5.43,5.43,0,0,1,0,7.58,5.32,5.32,0,1,1,0-7.54v0Zm-0.94,3.77a2.92,2.92,0,1,0-3,3A2.86,2.86,0,0,0,68.33,18.52Z" fill="#005693"/></svg>