<svg xmlns="http://www.w3.org/2000/svg" viewBox="0 0 41.5 34.2"><title>zero-percent-2</title><path d="M20.8,17.9A4.76,4.76,0,0,1,25.6,13a4.68,4.68,0,0,1,4.7,4.9A4.75,4.75,0,1,1,20.8,17.9Zm8.3,0a3.61,3.61,0,1,0-7.2,0A3.61,3.61,0,1,0,29.1,17.9Zm7.3-4.5h1.4L25.9,33.8H24.5ZM32,29.3a4.76,4.76,0,0,1,4.8-4.9,4.68,4.68,0,0,1,4.7,4.9,4.74,4.74,0,0,1-4.7,4.9A4.82,4.82,0,0,1,32,29.3Zm8.3,0a3.61,3.61,0,1,0-7.2,0A3.61,3.61,0,1,0,40.3,29.3Z" fill="#9ab9c9"/><path d="M22.8,29.1a17.55,17.55,0,0,0,2.4-4.2,7.72,7.72,0,0,1-1.5-.2,13.3,13.3,0,0,1-2,3.5,10,10,0,0,1-8.4,4.4,10.48,10.48,0,0,1-8.5-4.4A18.36,18.36,0,0,1,1.5,17,18.36,18.36,0,0,1,4.8,5.8a10.09,10.09,0,0,1,16.8,0A15.88,15.88,0,0,1,24.2,11a5.7,5.7,0,0,1,1.3-.1h0.2a16.59,16.59,0,0,0-3-6.1A11.48,11.48,0,0,0,13.2,0,11.48,11.48,0,0,0,3.7,4.8,19.46,19.46,0,0,0,0,17c0,4.9,1.2,8.9,3.7,12.1a11.48,11.48,0,0,0,9.5,4.8A11.4,11.4,0,0,0,22.8,29.1Z" fill="#9ab9c9"/></svg>