<?xml version="1.0" encoding="utf-8"?>
<!-- Generator: Adobe Illustrator 20.1.0, SVG Export Plug-In . SVG Version: 6.00 Build 0)  -->
<svg version="1.1" id="Слой_1" xmlns="http://www.w3.org/2000/svg" xmlns:xlink="http://www.w3.org/1999/xlink" x="0px" y="0px"
	 viewBox="0 0 125.3 63.4" style="enable-background:new 0 0 125.3 63.4;" xml:space="preserve">
<style type="text/css">
	.st0{fill:#DC4040;}
	.st1{fill:url(#SVGID_1_);}
	.st2{fill:#FFFFFF;}
	.st3{fill:#ABB4B9;}
</style>
<g>
	<path class="st0" d="M44.1,16.9c-0.3-0.2-0.8-0.3-1.2-0.1l-20.6,8l-20.6-8c-0.4-0.2-0.8-0.1-1.2,0.1C0.2,17.1,0,17.5,0,18v42
		c0,0.7,0.6,1.3,1.3,1.3h42.1c0.7,0,1.3-0.6,1.3-1.3V18C44.7,17.5,44.4,17.1,44.1,16.9z"/>
	<linearGradient id="SVGID_1_" gradientUnits="userSpaceOnUse" x1="22.325" y1="38.9457" x2="44.6509" y2="38.9457">
		<stop  offset="0" style="stop-color:#C12121"/>
		<stop  offset="1" style="stop-color:#C12121;stop-opacity:0"/>
	</linearGradient>
	<path class="st1" d="M44.1,16.9c-0.3-0.2-0.8-0.3-1.2-0.1l-20.6,8l0,0v36.5h21c0.7,0,1.3-0.6,1.3-1.3V18
		C44.7,17.5,44.4,17.1,44.1,16.9z"/>
	<circle class="st2" cx="10.1" cy="31.3" r="2.1"/>
	<circle class="st2" cx="34.6" cy="31.3" r="2.1"/>
	<path class="st3" d="M34.6,32.5c-0.5,0-1-0.4-1-1V14.8c0-4-1.2-7.3-3.6-9.6c-2.1-2-4.8-3.2-7.8-3.2c-5.4,0-11.2,4-11.2,12.8v16.7
		c0,0.5-0.4,1-1,1s-1-0.4-1-1V14.8C9.1,4.6,15.9,0,22.3,0c6.6,0,13.3,5.1,13.3,14.8v16.7C35.5,32,35.1,32.5,34.6,32.5z"/>
	<g>
		<g>
			<path class="st0" d="M66.9,24.8h-1.8v-4.5l-2,3.3h-0.2l-2-3.3v4.5h-1.8v-7.8h1.8l2.1,3.4l2.1-3.4h1.8V24.8z"/>
			<path class="st0" d="M73.9,19.3v5.5h-1.7v-0.5c-0.4,0.4-0.9,0.7-1.7,0.7c-1.5,0-2.6-1.3-2.6-2.9c0-1.7,1.2-2.9,2.6-2.9
				c0.7,0,1.3,0.3,1.7,0.7v-0.5H73.9z M72.3,22.1c0-0.8-0.6-1.4-1.3-1.4c-0.8,0-1.3,0.5-1.3,1.4c0,0.8,0.6,1.4,1.3,1.4
				C71.7,23.4,72.3,22.9,72.3,22.1z"/>
			<path class="st0" d="M79.1,20.9h-2.2v3.9h-1.7v-5.5h3.9V20.9z"/>
			<path class="st0" d="M85.4,19.3v5.5h-1.7v-0.5c-0.4,0.4-0.9,0.7-1.7,0.7c-1.5,0-2.6-1.3-2.6-2.9c0-1.7,1.2-2.9,2.6-2.9
				c0.7,0,1.3,0.3,1.7,0.7v-0.5H85.4z M83.8,22.1c0-0.8-0.6-1.4-1.3-1.4c-0.8,0-1.3,0.5-1.3,1.4c0,0.8,0.6,1.4,1.3,1.4
				C83.2,23.4,83.8,22.9,83.8,22.1z"/>
			<path class="st0" d="M90.9,23.3c0,0.9-0.8,1.7-2.3,1.7c-1.1,0-1.9-0.4-2.3-1.3l1.3-0.8c0.2,0.4,0.5,0.7,1,0.7
				c0.4,0,0.7-0.2,0.7-0.4c0-0.2-0.2-0.4-0.5-0.4H88v-1.4h0.6c0.4,0,0.5-0.1,0.5-0.4c0-0.3-0.2-0.4-0.5-0.4c-0.4,0-0.7,0.2-0.9,0.6
				l-1.3-0.8c0.5-0.9,1.3-1.3,2.2-1.3c1.4,0,2.1,0.8,2.1,1.7c0,0.5-0.2,0.9-0.6,1.2C90.7,22.3,90.9,22.8,90.9,23.3z"/>
			<path class="st0" d="M97.1,19.3v5.5h-1.6v-2.8l-2.4,2.8h-1.2v-5.5h1.6v2.8l2.4-2.8H97.1z"/>
			<path class="st0" d="M103.6,19.3v5.5H102v-2h-1.9v2h-1.7v-5.5h1.7v2h1.9v-2H103.6z"/>
			<path class="st0" d="M63.1,35.3v2.1h-1.6v-2.1c-1.7-0.3-2.7-1.4-2.7-2.8s1-2.6,2.7-2.8v-2.1h1.6v2.1c1.7,0.3,2.7,1.4,2.7,2.8
				S64.8,35,63.1,35.3z M61.5,33.7v-2.5c-0.7,0.2-1,0.6-1,1.3C60.4,33.1,60.8,33.5,61.5,33.7z M64.1,32.5c0-0.6-0.4-1.1-1-1.3v2.5
				C63.8,33.5,64.1,33.1,64.1,32.5z"/>
			<path class="st0" d="M72,29.7v5.5h-1.6v-2.8L68,35.2h-1.2v-5.5h1.6v2.8l2.4-2.8H72z"/>
			<path class="st0" d="M78.6,29.7v5.5h-1.7v-2H75v2h-1.7v-5.5H75v2h1.9v-2H78.6z"/>
			<path class="st0" d="M85.6,29.7v5.5h-1.7v-0.5c-0.4,0.4-0.9,0.7-1.7,0.7c-1.5,0-2.6-1.3-2.6-2.9c0-1.7,1.2-2.9,2.6-2.9
				c0.7,0,1.3,0.3,1.7,0.7v-0.5H85.6z M83.9,32.5c0-0.8-0.6-1.4-1.3-1.4c-0.8,0-1.3,0.5-1.3,1.4c0,0.8,0.6,1.4,1.3,1.4
				C83.4,33.8,83.9,33.3,83.9,32.5z"/>
			<path class="st0" d="M92.1,29.7v5.5h-1.7v-2h-1.9v2h-1.7v-5.5h1.7v2h1.9v-2H92.1z"/>
			<path class="st0" d="M93.2,32.5c0-1.7,1.3-2.9,2.9-2.9c1.1,0,2,0.6,2.5,1.4l-1.5,0.8c-0.2-0.4-0.6-0.6-1.1-0.6
				c-0.7,0-1.3,0.5-1.3,1.3s0.5,1.3,1.3,1.3c0.5,0,0.9-0.2,1.1-0.6l1.5,0.8c-0.5,0.9-1.4,1.4-2.5,1.4C94.4,35.4,93.2,34.1,93.2,32.5
				z"/>
			<path class="st0" d="M99,32.5c0-1.7,1.3-2.9,2.9-2.9c1.6,0,2.9,1.3,2.9,2.9c0,1.7-1.3,2.9-2.9,2.9C100.3,35.4,99,34.1,99,32.5z
				 M103.2,32.5c0-0.8-0.6-1.3-1.3-1.3c-0.7,0-1.3,0.5-1.3,1.3c0,0.8,0.6,1.3,1.3,1.3C102.6,33.8,103.2,33.3,103.2,32.5z"/>
			<path class="st0" d="M110.8,33.7c0,0.9-0.7,1.6-1.9,1.6h-3v-5.5h2.8c1.2,0,1.9,0.7,1.9,1.6c0,0.5-0.2,0.9-0.5,1.1
				C110.5,32.7,110.8,33.1,110.8,33.7z M107.5,31v0.8h1c0.3,0,0.5-0.1,0.5-0.4c0-0.3-0.2-0.4-0.5-0.4H107.5z M109.2,33.5
				c0-0.3-0.2-0.4-0.5-0.4h-1.2v0.8h1.2C109,33.9,109.2,33.7,109.2,33.5z"/>
			<path class="st0" d="M116.5,33.3c0,1.2-0.8,1.9-2.2,1.9h-2.6v-5.5h1.7v1.7h0.9C115.7,31.4,116.5,32.1,116.5,33.3z M114.9,33.3
				c0-0.3-0.2-0.5-0.5-0.5h-0.9v1h0.9C114.7,33.8,114.9,33.6,114.9,33.3z M118.7,29.7v5.5H117v-5.5H118.7z"/>
			<path class="st0" d="M123.4,35.2l-1-1.5l-1,1.5h-1.9l2-2.8l-1.9-2.7h1.9l1,1.4l1-1.4h1.9l-1.9,2.7l2,2.8H123.4z"/>
			<path class="st0" d="M65,42.9c0,1.7-1.2,2.9-2.6,2.9c-0.7,0-1.3-0.3-1.7-0.7v2.7h-1.7v-7.8h1.7v0.5c0.4-0.4,0.9-0.7,1.7-0.7
				C63.8,39.9,65,41.2,65,42.9z M63.4,42.9c0-0.8-0.6-1.4-1.3-1.4c-0.8,0-1.3,0.5-1.3,1.4c0,0.8,0.6,1.4,1.3,1.4
				C62.8,44.2,63.4,43.7,63.4,42.9z"/>
			<path class="st0" d="M68.9,44.3c0.5,0,0.8-0.2,1.1-0.4l1.3,0.8c-0.5,0.8-1.4,1.1-2.4,1.1c-1.9,0-3.1-1.3-3.1-2.9
				c0-1.7,1.2-2.9,2.9-2.9c1.6,0,2.8,1.3,2.8,2.9c0,0.2,0,0.5-0.1,0.7h-3.9C67.8,44.1,68.3,44.3,68.9,44.3z M69.9,42.3
				c-0.2-0.6-0.7-0.9-1.2-0.9c-0.6,0-1.1,0.3-1.2,0.9H69.9z"/>
			<path class="st0" d="M80.7,40.1v5.5h-8.1v-5.5h1.7v4h1.6v-4h1.7v4H79v-4H80.7z"/>
			<path class="st0" d="M84.8,44.3c0.5,0,0.8-0.2,1.1-0.4l1.3,0.8c-0.5,0.8-1.4,1.1-2.4,1.1c-1.9,0-3.1-1.3-3.1-2.9
				c0-1.7,1.2-2.9,2.9-2.9c1.6,0,2.8,1.3,2.8,2.9c0,0.2,0,0.5-0.1,0.7h-3.9C83.7,44.1,84.2,44.3,84.8,44.3z M85.9,42.3
				c-0.2-0.6-0.7-0.9-1.2-0.9c-0.6,0-1.1,0.3-1.2,0.9H85.9z"/>
			<path class="st0" d="M93.8,40.1v5.5h-1.7v-2h-1.9v2h-1.7v-5.5h1.7v2h1.9v-2H93.8z"/>
			<path class="st0" d="M100.3,40.1v5.5h-1.6v-2.8l-2.4,2.8h-1.2v-5.5h1.6v2.8l2.4-2.8H100.3z"/>
			<path class="st0" d="M106.8,40.1v5.5h-1.6v-2.8l-2.4,2.8h-1.2v-5.5h1.6v2.8l2.4-2.8H106.8z M102.6,38h3.3v1.4h-3.3V38z"/>
			<path class="st0" d="M64.8,58.8c0,1.5-1.1,2.4-2.7,2.4h-3v-7.8h5v1.7h-3.2v1.2h1.2C63.7,56.3,64.8,57.3,64.8,58.8z M63,58.8
				c0-0.6-0.4-0.8-0.9-0.8h-1.2v1.6h1.2C62.6,59.5,63,59.3,63,58.8z"/>
			<path class="st0" d="M68.5,59.9c0.5,0,0.8-0.2,1.1-0.4l1.3,0.8c-0.5,0.8-1.4,1.1-2.4,1.1c-1.9,0-3.1-1.3-3.1-2.9
				c0-1.7,1.2-2.9,2.9-2.9c1.6,0,2.8,1.3,2.8,2.9c0,0.2,0,0.5-0.1,0.7h-3.9C67.3,59.7,67.9,59.9,68.5,59.9z M69.5,57.9
				c-0.2-0.6-0.7-0.9-1.2-0.9c-0.6,0-1.1,0.3-1.2,0.9H69.5z"/>
			<path class="st0" d="M78.1,58.4c0,1.7-1.2,2.9-2.6,2.9c-0.7,0-1.3-0.3-1.7-0.7v2.7h-1.7v-7.8h1.7v0.5c0.4-0.4,0.9-0.7,1.7-0.7
				C76.9,55.5,78.1,56.8,78.1,58.4z M76.5,58.4c0-0.8-0.6-1.4-1.3-1.4c-0.8,0-1.3,0.5-1.3,1.4c0,0.8,0.6,1.4,1.3,1.4
				C75.9,59.8,76.5,59.3,76.5,58.4z"/>
			<path class="st0" d="M84.4,55.7v5.5h-1.6v-2.8l-2.4,2.8h-1.2v-5.5h1.6v2.8l2.4-2.8H84.4z"/>
			<path class="st0" d="M85.6,60.3c0-0.6,0.5-1.1,1.1-1.1s1.1,0.5,1.1,1.1s-0.5,1.1-1.1,1.1S85.6,60.9,85.6,60.3z"/>
			<path class="st0" d="M94.9,58.4c0,1.7-1.2,2.9-2.6,2.9c-0.7,0-1.3-0.3-1.7-0.7v2.7h-1.7v-7.8h1.7v0.5c0.4-0.4,0.9-0.7,1.7-0.7
				C93.7,55.5,94.9,56.8,94.9,58.4z M93.2,58.4c0-0.8-0.6-1.4-1.3-1.4c-0.8,0-1.3,0.5-1.3,1.4c0,0.8,0.6,1.4,1.3,1.4
				C92.7,59.8,93.2,59.3,93.2,58.4z"/>
			<path class="st0" d="M101,55.7L99.1,61c-0.6,1.8-1.7,2.5-3.2,2.4v-1.6c0.7,0,1.1-0.2,1.4-0.8l-2.2-5.4h1.8l1.3,3.4l1-3.4H101z"/>
		</g>
	</g>
	<path class="st2" d="M22.6,48.6c1.8,0,3.3-0.6,4.5-1.9c1.3-1.3,1.9-2.8,1.9-4.5c0-0.6-0.1-1.1-0.2-1.7c-0.2-0.5-0.4-1.1-0.7-1.5
		c-0.3-0.5-0.6-0.9-1-1.3c-0.4-0.4-0.8-0.7-1.3-1c-0.5-0.3-1-0.5-1.5-0.7c-0.5-0.2-1.1-0.2-1.7-0.2h-3.7c-0.2,0-0.4,0-0.5,0.1
		S18.1,36,18,36.1c-0.1,0.1-0.2,0.3-0.3,0.4c-0.1,0.2-0.1,0.3-0.1,0.5v13.5v2.6v0.8c0,0.4,0.1,0.7,0.4,0.9c0.2,0.3,0.6,0.4,0.9,0.4
		c0.4,0,0.7-0.1,0.9-0.4c0.2-0.2,0.4-0.6,0.4-0.9v-0.8h2.6c0.4,0,0.7-0.1,0.9-0.4c0.3-0.2,0.4-0.6,0.4-0.9c0-0.4-0.1-0.7-0.4-0.9
		c-0.2-0.2-0.6-0.4-0.9-0.4h-2.6v-1.9H22.6z M20.2,38.3h2.4c0.5,0,1,0.1,1.5,0.3c0.5,0.2,0.9,0.5,1.2,0.8c0.4,0.3,0.6,0.8,0.8,1.2
		c0.2,0.5,0.3,1,0.3,1.5c0,0.5-0.1,1-0.3,1.5c-0.2,0.5-0.5,0.9-0.8,1.2c-0.4,0.3-0.8,0.6-1.2,0.8c-0.5,0.2-1,0.3-1.5,0.3h-2.4V38.3z
		"/>
</g>
</svg>
