<?xml version="1.0" encoding="utf-8"?>
<!-- Generator: Adobe Illustrator 17.1.0, SVG Export Plug-In . SVG Version: 6.00 Build 0)  -->
<!DOCTYPE svg PUBLIC "-//W3C//DTD SVG 1.1//EN" "http://www.w3.org/Graphics/SVG/1.1/DTD/svg11.dtd">
<svg version="1.1"  xmlns="http://www.w3.org/2000/svg" xmlns:xlink="http://www.w3.org/1999/xlink" x="0px" y="0px"
	 viewBox="0 0 200.4 197.5" enable-background="new 0 0 200.4 197.5" xml:space="preserve" width="200.4" height="197.5" >
<g>
	<defs>
		<rect id="SVGID_1_" width="200.4" height="197.5"/>
	</defs>
	<clipPath id="SVGID_2_">
		<use xlink:href="#SVGID_1_"  overflow="visible"/>
	</clipPath>
	<path clip-path="url(#SVGID_2_)" d="M199.9,121.7h-1.2c-0.1,0-55,0-87.8-0.9c-16-0.5-24.5-12.1-24.6-23.7
		c0.1-11.3,8.1-22.3,26.8-22.6c12.9-0.2,26.7-0.2,39.4-0.2c25.3,0,46.1,0.2,46.1,0.2l1.2,0V0.2l-1.2,0c0,0-12.3,0-34.1,0l-6.1,4.3
		c-0.4-0.5-0.9-0.7-1.5-0.8c-0.6,0-1.1,0.1-1.7,0.5c-1.3,0.9-1.6,1.8-1.1,2.6c0.3,0.5,1.2,0.5,2.6,0c1.4-0.5,2.9-1.1,4.7-1.8
		c1.8-0.7,3.4-1,4.9-0.9c1.5,0.1,2.8,0.8,3.8,2.3c0.8,1.2,1.2,2.5,1.2,3.9c0,1.4-0.6,2.8-1.6,4.3c-1,1.5-2.6,2.9-4.6,4.4
		c-2.3,1.6-4.6,2.6-6.9,2.8c-2.3,0.2-4.2-0.6-5.9-2.6l6.5-4.6c0.5,0.7,1.1,1,1.8,1.1c0.7,0,1.4-0.2,2-0.7c1.5-1,1.8-2,1.1-3.1
		c-0.4-0.6-1.3-0.6-2.8-0.1c-1.4,0.6-2.9,1.1-4.5,1.8c-1.6,0.6-3.1,0.9-4.6,0.8c-1.5-0.1-2.8-0.9-3.8-2.4c-1-1.4-1.3-2.8-1.1-4.2
		c0.2-1.4,0.8-2.7,1.8-4c1-1.2,2.6-2.8,3.9-3.7h-0.7c-14.8,0-32.7,0-53.1,0c-30.7,0-55.5,9.9-72.6,27.5C9.3,45.3,0,70.5,0,100.9
		c0,0.5,0,1,0,1.5c0.6,61.7,46.9,95,95.5,94.9c0.1,0,0.3,0,0.3,0c6.5,0,13.1,0,19.7,0c29.1,0,57.6,0.2,72.7,0.2c3.5,0,6.2,0,8.1,0
		c0.9,0,1.7,0,2.2-0.1c0.3,0,0.5,0,0.6,0c0.1,0,0.2,0,0.3,0c0.1,0,0.1,0,0.3-0.1c0.1-0.1,0.6-0.1,0.7-1.1c0,0.1,0,0.2,0,0.2
		c0,0,0-0.1,0-0.2v0l0,0L199.9,121.7z M128.9,17.8l1.9,2.7c0-1.7,0.3-3.1,0.9-4.2c0.5-1.2,1.4-2.2,2.7-3.1c4.4-3.1,8.4-2.2,11.9,2.7
		l7.2,10.3l-6.8,4.8l-6.4-9.1c-1.5-2.1-3.1-2.7-4.7-1.5c-1,0.7-1.5,1.5-1.5,2.3c0,0.9,0.4,1.9,1.3,3.1l6.2,8.8l-6.8,4.8l-12.1-17.2
		L128.9,17.8z M131,42l-6.8,4.8l-12.1-17.2l6.8-4.8L131,42z M114,17.7l3.4,4.9l-6.8,4.8l-3.4-4.9L114,17.7z M84.9,48.6l1.8,2.6
		c0-1.1,0.2-2.3,0.8-3.7c0.6-1.3,1.4-2.4,2.5-3.2c2.8-2,5.4-2.2,7.8-0.8c0-3.2,1.3-5.6,3.7-7.3c1.6-1.1,3.1-1.8,4.5-1.9
		c1.4-0.1,2.7,0.3,3.9,1.1c1.2,0.8,2.4,2,3.5,3.7l7.1,10.2l-6.8,4.8l-6.2-8.8c-0.9-1.3-1.7-2.1-2.4-2.4c-0.7-0.3-1.5-0.1-2.4,0.5
		c-0.9,0.6-1.3,1.4-1.2,2.3c0.1,0.9,0.6,2,1.5,3.2l6,8.5l-6.8,4.8l-6.2-8.8c-0.9-1.3-1.7-2.1-2.4-2.4c-0.7-0.3-1.5-0.1-2.4,0.5
		c-0.9,0.6-1.3,1.4-1.2,2.3c0.1,0.9,0.6,2,1.5,3.2l6,8.5l-6.8,4.8L78.6,53L84.9,48.6z M24.7,116.6c-1.9,1.3-3.9,2.2-5.9,2.7
		c-1.9,0.5-3.8,0.8-5.7,0.4c-1.9-0.3-3.6-1.1-5.3-2.2c-1.6-1.1-3.1-2.7-4.5-4.6c-1.7-2.5-2.8-5-3-7.6c-0.3-2.6,0.1-5,1.2-7.3
		c1.1-2.3,2.8-4.1,4.9-5.7c6-4.5,6-4.3,9.7-6.9l4.6,6.6c-2.1,1.4-4.7,3.3-6.9,4.9c-4.7,3.5-5.7,7.3-3.1,11.1
		c2.7,3.9,6.6,3.6,11.3,0.5c2.4-1.6,3.8-2.6,6.9-4.9c1.3,2.2,3.1,4.5,4.6,6.8C30.7,112.5,28,114.3,24.7,116.6 M48.3,99.9l-1.8-2.5
		c0,1.7-0.3,3.1-1,4.2c-0.6,1.1-1.7,2.1-3.1,3.2c-1.9,1.4-3.9,1.8-5.8,1.4c-1.9-0.4-3.8-1.9-5.4-4.3l-7.4-10.5l6.8-4.8l6.5,9.3
		c0.8,1.1,1.6,1.8,2.3,2c0.7,0.2,1.5,0,2.4-0.6c1-0.7,1.4-1.5,1.3-2.4c-0.1-1-0.6-2.1-1.6-3.5L35.8,83l6.8-4.8l12.1,17.2L48.3,99.9z
		 M70.2,71.9l6,8.5l-6.8,4.8l-6.2-8.8c-0.9-1.3-1.7-2.1-2.4-2.4c-0.7-0.3-1.5-0.1-2.4,0.5c-0.9,0.7-1.3,1.4-1.2,2.3
		c0.1,0.9,0.6,2,1.5,3.2l6,8.5l-6.8,4.8L45.7,76.1l6.3-4.4l1.8,2.6c0-1.1,0.2-2.3,0.8-3.7c0.6-1.3,1.4-2.4,2.5-3.2
		c2.8-2,5.4-2.2,7.8-0.8c0-3.2,1.3-5.6,3.7-7.3c1.6-1.1,3.1-1.8,4.5-1.9c1.4-0.1,2.7,0.3,3.9,1.1c1.2,0.8,2.4,2,3.5,3.7l7.1,10.2
		l-6.8,4.8l-6.2-8.8c-0.9-1.3-1.7-2.1-2.4-2.4c-0.7-0.3-1.5-0.1-2.4,0.5c-0.9,0.6-1.3,1.4-1.2,2.3C68.9,69.7,69.4,70.7,70.2,71.9
		 M200.3,196L200.3,196C200.4,196,200.4,196,200.3,196L200.3,196z M164.8,0.1c-3.6-0.1-5.2-0.1-11.9,0.1c0,0,0,0,0,0
		c4.2,0,8.1,0,11.8,0L164.8,0.1z"/>
</g>
</svg>
